<?xml version="1.0" standalone="no"?>
<!DOCTYPE svg PUBLIC "-//W3C//DTD SVG 1.1//EN" "http://www.w3.org/Graphics/SVG/1.1/DTD/svg11.dtd" >
<svg xmlns="http://www.w3.org/2000/svg">
<metadata></metadata>
<defs>
<font id="fibasansregular" horiz-adv-x="1187" >
<font-face units-per-em="2048" ascent="1567" descent="-481" />
<missing-glyph horiz-adv-x="440" />
<glyph unicode="fb" horiz-adv-x="1095" d="M0 0v1096h1096v-1096h-1096z" />
<glyph unicode="&#xfb01;" horiz-adv-x="1169" d="M82 1049v18q0 33 39 33h203v190q0 129 58 185.5t173 56.5q80 0 107 -6q38 -7 38 -33v-14q0 -27 -43 -27h-102q-74 0 -107.5 -36t-33.5 -126v-190h553q17 0 28 -11t11 -28v-1022q0 -17 -11 -28t-28 -11h-13q-17 0 -28 11t-11 28v977h-501v-977q0 -17 -10 -28t-27 -11h-15 q-17 0 -27.5 11t-10.5 28v977h-203q-39 0 -39 33zM915 1341v152q0 17 11 28t28 11h13q17 0 28 -11t11 -28v-152q0 -17 -11 -27.5t-28 -10.5h-13q-17 0 -28 10.5t-11 27.5z" />
<glyph unicode="&#xfb02;" horiz-adv-x="1169" d="M82 1049v18q0 33 39 33h203v190q0 138 66.5 190t225.5 52q238 0 355 -6q35 0 35 -39v-1448q0 -39 -35 -39h-21q-35 0 -35 39v1413h-294q-127 0 -167 -29.5t-40 -132.5v-190h243q39 0 39 -33v-18q0 -33 -39 -33h-243v-977q0 -17 -10 -28t-27 -11h-15q-17 0 -27.5 11 t-10.5 28v977h-203q-39 0 -39 33z" />
<glyph unicode="&#xfb03;" horiz-adv-x="1781" d="M82 1049v18q0 33 39 33h203v190q0 129 58 185.5t173 56.5q80 0 107 -6q38 -7 38 -33v-14q0 -27 -43 -27h-102q-74 0 -107.5 -36t-33.5 -126v-190h501v190q0 129 58.5 185.5t173.5 56.5q79 0 106 -6q39 -8 39 -33v-14q0 -27 -43 -27h-102q-74 0 -107.5 -36t-33.5 -126 v-190h573q39 0 39 -39v-1022q0 -17 -11 -28t-28 -11h-12q-17 0 -28 11t-11 28v977h-522v-977q0 -17 -10 -28t-27 -11h-15q-17 0 -28 11t-11 28v977h-501v-977q0 -17 -10 -28t-27 -11h-15q-17 0 -27.5 11t-10.5 28v977h-203q-39 0 -39 33zM1528 1341v152q0 17 11 28t28 11h12 q17 0 28 -11t11 -28v-152q0 -17 -11 -27.5t-28 -10.5h-12q-17 0 -28 10.5t-11 27.5z" />
<glyph unicode="&#xfb04;" horiz-adv-x="1761" d="M82 1049v18q0 33 39 33h203v190q0 129 58 185.5t173 56.5q80 0 107 -6q38 -7 38 -33v-14q0 -27 -43 -27h-102q-74 0 -107.5 -36t-33.5 -126v-190h501v190q0 138 67 190t226 52q238 0 355 -6q34 0 34 -39v-1448q0 -39 -34 -39h-21q-35 0 -35 39v1413h-295 q-126 0 -166 -29.5t-40 -132.5v-190h243q39 0 39 -33v-18q0 -33 -39 -33h-243v-977q0 -17 -10 -28t-27 -11h-15q-17 0 -28 11t-11 28v977h-501v-977q0 -17 -10 -28t-27 -11h-15q-17 0 -27.5 11t-10.5 28v977h-203q-39 0 -39 33z" />
<glyph horiz-adv-x="2048" />
<glyph horiz-adv-x="2048" />
<glyph unicode="&#xd;" horiz-adv-x="2048" />
<glyph unicode=" "  horiz-adv-x="440" />
<glyph unicode="&#x09;" horiz-adv-x="440" />
<glyph unicode="&#xa0;" horiz-adv-x="440" />
<glyph unicode="!" horiz-adv-x="417" d="M164 27v151q0 17 11 28t28 11h12q17 0 28 -11t11 -28v-151q0 -17 -11 -28t-28 -11h-12q-17 0 -28 11t-11 28zM164 393v1090q0 17 11 28t28 11h12q17 0 28 -11t11 -28v-1090q0 -17 -11 -28t-28 -11h-12q-17 0 -28 11t-11 28z" />
<glyph unicode="&#x22;" horiz-adv-x="604" d="M80 1112q0 12 2 18l84 353q9 39 41 39h39q22 0 22 -23q0 -12 -2 -16l-98 -353q-8 -38 -39 -38h-31q-18 0 -18 20zM336 1112q0 12 2 18l84 353q9 39 41 39h39q22 0 22 -23q0 -12 -2 -16l-98 -353q-8 -38 -39 -38h-31q-18 0 -18 20z" />
<glyph unicode="#" horiz-adv-x="1302" d="M102 479v6q0 17 12.5 26t30.5 9h213l41 463h-213q-36 0 -36 35v8q0 17 12.5 26t30.5 9h213l36 422q2 18 12 28.5t27 10.5h21q13 0 21.5 -10.5t8.5 -24.5v-4l-36 -422h368l37 422q2 18 12 28.5t27 10.5h18q31 0 31 -35v-4l-37 -422h213q35 0 35 -35v-8q0 -17 -11.5 -26 t-29.5 -9h-213l-41 -463h213q35 0 35 -35v-6q0 -17 -11.5 -26t-29.5 -9h-215l-35 -405q-3 -39 -37 -39h-18q-16 0 -24.5 10t-8.5 25v4l35 405h-369l-34 -405q-3 -39 -37 -39h-21q-13 0 -23 10.5t-10 24.5v4l35 405h-211q-37 0 -37 35zM449 520h368l41 463h-369z" />
<glyph unicode="$" d="M164 1200q0 298 389 328v178q0 39 33 39h20q33 0 33 -39v-174h4q74 0 305 -21q35 -3 35 -30v-27q0 -29 -39 -29q-14 0 -128.5 10.5t-174.5 10.5q-201 0 -292 -59t-91 -187q0 -88 50 -147.5t198 -149.5l201 -123q129 -78 199 -143.5t94 -123.5t24 -136q0 -352 -385 -385 v-215q0 -39 -33 -39h-20q-33 0 -33 39v211h-4q-93 0 -318 22q-36 4 -36 33v27q0 16 9 21t29 5h9q34 -3 95 -9t111 -9.5t101 -3.5q112 0 189 22.5t118 66t57.5 94.5t16.5 120q0 100 -52.5 159.5t-224.5 165.5l-204 127q-165 100 -225 181t-60 190z" />
<glyph unicode="%" horiz-adv-x="1550" d="M123 1001v213q0 158 68 238t192 80t191 -80t67 -238v-213q0 -159 -67 -239t-191 -80t-192 80.5t-68 238.5zM203 1001q0 -239 180 -239q178 0 178 239v213q0 240 -178 240q-180 0 -180 -240v-213zM279 -2q0 11 12 29l860 1456q13 25 20 32t23 7h53q17 0 17 -11 q0 -9 -13 -28l-860 -1456q-13 -25 -20 -32t-23 -7h-55q-14 0 -14 10zM909 307v213q0 158 68 238t192 80t191 -80t67 -238v-213q0 -159 -67 -239t-191 -80t-192 80.5t-68 238.5zM989 307q0 -239 180 -239q179 0 179 239v213q0 240 -179 240q-180 0 -180 -240v-213z" />
<glyph unicode="&#x26;" horiz-adv-x="1304" d="M102 342v12q0 127 68 218.5t244 201.5q-108 126 -163 209t-69 127t-14 96v13q0 84 30 146t84 97.5t123 52.5t154 17q73 0 137.5 -17t119 -52.5t86.5 -98t32 -145.5v-13q0 -118 -72 -210t-250 -199l-67 -41l192 -207l244 -262q104 162 104 426v22q0 39 31 39h29 q33 0 33 -39v-22q0 -298 -136 -492l181 -194q4 -12 4 -13q0 -14 -17 -14h-65q-19 0 -33 14l-129 138q-155 -164 -418 -164q-66 0 -128 9.5t-124 35t-108 64t-74.5 102t-28.5 143.5zM199 342q0 -73 31 -127.5t84.5 -85t116 -45t134.5 -14.5q226 0 361 145l-254 272 q-27 29 -99.5 107.5t-103.5 114.5q-160 -101 -215 -171t-55 -184v-12zM262 1206q0 -47 11 -83.5t62.5 -111.5t153.5 -190l76 45q162 95 218.5 168t56.5 172v13q0 231 -281 231q-70 0 -120.5 -10.5t-92.5 -35t-63 -71t-21 -114.5v-13z" />
<glyph unicode="'" horiz-adv-x="348" d="M80 1112q0 12 2 18l84 353q9 39 41 39h39q22 0 22 -23q0 -12 -2 -16l-98 -353q-8 -38 -39 -38h-31q-18 0 -18 20z" />
<glyph unicode="(" horiz-adv-x="542" d="M123 506v110q0 225 66.5 476.5t199.5 414.5q12 15 35 15h61q17 0 17 -11q0 -8 -10 -18q-90 -95 -155 -258t-93.5 -322t-28.5 -297v-110q0 -138 28.5 -297t93.5 -322t155 -258q10 -10 10 -18q0 -10 -17 -10h-61q-24 0 -35 14q-133 163 -199.5 414.5t-66.5 476.5z" />
<glyph unicode=")" horiz-adv-x="542" d="M41 -389q0 8 10 18q88 96 153.5 258t94.5 321.5t29 297.5v110q0 138 -29 297.5t-94.5 321.5t-153.5 258q-10 10 -10 18q0 11 16 11h62q23 0 35 -15q133 -163 199.5 -414.5t66.5 -476.5v-110q0 -225 -66.5 -476.5t-199.5 -414.5q-11 -14 -35 -14h-62q-16 0 -16 10z" />
<glyph unicode="*" horiz-adv-x="854" d="M70 1260q0 6 2 8l6 16q6 19 28 19q9 0 15 -3l268 -86v281q0 37 29 37h18q29 0 29 -37v-281l268 86q6 3 15 3q22 0 28 -19l6 -16q2 -2 2 -8q0 -27 -28 -33l-267 -86l164 -228q11 -18 11 -24q0 -13 -13 -23l-14 -10q-9 -6 -16 -6q-14 0 -29 18l-166 228l-164 -228 q-13 -16 -29 -16q-8 0 -16 4l-16 10q-13 6 -13 21q0 8 11 26l166 228l-267 86q-28 6 -28 33z" />
<glyph unicode="+" d="M139 791v20q0 33 41 33h371v373q0 40 33 40h20q33 0 33 -40v-373h373q41 0 41 -33v-20q0 -33 -41 -33h-373v-371q0 -41 -33 -41h-20q-33 0 -33 41v371h-371q-41 0 -41 33z" />
<glyph unicode="," horiz-adv-x="344" d="M49 -184q0 2 4 18l109 344q9 39 41 39h39q24 0 24 -22q0 -1 -4 -17l-129 -344q-8 -22 -15.5 -30.5t-23.5 -8.5h-24q-21 0 -21 21z" />
<glyph unicode="-" horiz-adv-x="704" d="M106 559v16q0 17 11 27t28 10h414q17 0 28 -10t11 -27v-16q0 -33 -39 -33h-414q-39 0 -39 33z" />
<glyph unicode="." horiz-adv-x="344" d="M127 27v151q0 17 11 28t28 11h12q17 0 28 -11t11 -28v-151q0 -17 -11 -28t-28 -11h-12q-17 0 -28 11t-11 28z" />
<glyph unicode="/" horiz-adv-x="638" d="M29 12q0 13 2 15l481 1466q0 1 2.5 7.5t3 8t2.5 7t4 7t5 4.5t7 4t9 1h43q22 0 22 -25q0 -12 -2 -14l-481 -1466q0 -1 -2.5 -7.5t-3 -8t-2.5 -7t-4 -7t-5 -4.5t-7 -4t-9 -1h-45q-20 0 -20 24z" />
<glyph unicode="0" d="M123 559v404q0 287 123.5 428t347.5 141q221 0 346 -141.5t125 -427.5v-404q0 -287 -124.5 -429t-346.5 -142q-224 0 -347.5 141.5t-123.5 429.5zM213 559q0 -243 97 -366t284 -123t284 123t97 366v404q0 243 -97 365t-284 122t-284 -122t-97 -365v-404z" />
<glyph unicode="1" d="M131 1415v10q0 15 6.5 23.5t13 11t21.5 6.5l395 56h11q36 0 36 -41v-1397h351q41 0 41 -31v-22q0 -31 -41 -31h-791q-41 0 -41 31v22q0 31 41 31h350v1350l-352 -45h-10q-31 0 -31 26z" />
<glyph unicode="2" d="M164 41v125q0 84 11 145.5t42.5 130t96.5 134t167 133.5l209 141q139 94 187.5 160t48.5 164q0 142 -88 207t-289 65q-173 0 -313 -31q-3 0 -6.5 -1t-4.5 -1q-32 0 -32 33v22q0 16 8.5 22t29.5 11q140 31 318 31q236 0 355.5 -87.5t119.5 -270.5q0 -116 -59.5 -203 t-216.5 -191l-209 -141q-78 -54 -130.5 -102t-83 -88.5t-46 -89.5t-19.5 -89t-4 -104v-82h709q41 0 41 -31v-22q0 -31 -41 -31h-760q-18 0 -29.5 11.5t-11.5 29.5z" />
<glyph unicode="3" d="M172 55v13q0 32 33 32h8q163 -26 295 -26q213 0 312.5 82t99.5 266v41q0 44 -16 92t-48 94.5t-91.5 76.5t-135.5 30h-383q-17 0 -28 10t-11 27v14q0 37 39 37h383q68 0 121 20t84.5 50t51.5 70.5t27 76.5t7 72v24q0 86 -25 142.5t-79 88.5t-127 45t-181 13 q-100 0 -295 -31h-8q-33 0 -33 33v16q0 27 37 37q177 31 299 31q125 0 214 -17t157.5 -58.5t102.5 -116t34 -183.5v-24q0 -109 -50.5 -198t-162.5 -140q57 -26 100 -67t66.5 -87.5t35 -91t11.5 -86.5v-41q0 -223 -133.5 -328.5t-374.5 -105.5q-149 0 -299 30q-37 10 -37 37z " />
<glyph unicode="4" d="M78 553q0 48 28 86l574 842q34 51 104 51q82 0 82 -98v-906h205q39 0 39 -32v-19q0 -35 -39 -35h-205v-403q0 -39 -32 -39h-25q-33 0 -33 39v403h-567q-61 0 -96 31t-35 80zM164 553q0 -25 45 -25h567v893q0 17 -12 17q-7 0 -21 -17l-559 -821q-20 -32 -20 -47z" />
<glyph unicode="5" d="M158 63v23q0 27 26 27q13 0 17 -2q154 -37 311 -37q207 0 317.5 91.5t110.5 274.5v52q0 177 -114.5 247t-379.5 70h-217q-41 0 -41 41v4l48 633q1 16 13 25.5t27 9.5h668q41 0 41 -33v-23q0 -28 -41 -28h-620l-37 -545h159q165 0 279 -25t180.5 -77.5t95.5 -124.5 t29 -174v-52q0 -217 -141.5 -334.5t-376.5 -117.5q-173 0 -315 37q-39 6 -39 38z" />
<glyph unicode="6" d="M131 518v481q0 282 125 407.5t377 125.5q99 0 167.5 -9.5t157.5 -29.5q46 -12 46 -37v-20q0 -29 -33 -29q-13 0 -17 2q-96 20 -161 28.5t-160 8.5q-215 0 -313.5 -100.5t-98.5 -346.5v-127q208 54 379 54q70 0 133.5 -12t123.5 -41t103.5 -73.5t70 -115t26.5 -160.5v-10 q0 -267 -113 -396.5t-360 -129.5q-232 0 -342.5 130t-110.5 400zM221 518q0 -242 86.5 -345t276.5 -103t286.5 103.5t96.5 340.5v10q0 90 -32 155t-87 99t-116 49t-132 15q-192 0 -379 -49v-275z" />
<glyph unicode="7" d="M127 1466v17q0 17 12 28t29 11h811q35 0 57.5 -20t22.5 -52q0 -22 -10 -45l-656 -1385q-12 -20 -37 -20h-30q-31 0 -31 31q0 12 6 24l647 1350q2 2 2 12q0 17 -16 17h-766q-41 0 -41 32z" />
<glyph unicode="8" d="M115 403v62q0 60 21.5 121.5t71.5 120.5t120 90q-98 35 -155.5 122t-57.5 195v45q0 187 128 280t351 93t351 -93t128 -280v-45q0 -108 -57.5 -195t-155.5 -122q70 -31 120 -90t71.5 -120.5t21.5 -121.5v-62q0 -104 -36 -184t-100.5 -130t-151 -75.5t-191.5 -25.5 t-191.5 25.5t-151 75.5t-100.5 130t-36 184zM211 403q0 -163 98.5 -246t284.5 -83t284.5 83t98.5 246v62q0 31 -8 66.5t-29 76.5t-53.5 73t-86.5 53.5t-122 21.5h-168q-68 0 -122 -21.5t-86.5 -53.5t-53.5 -73t-29 -76.5t-8 -66.5v-62zM211 1114q0 -37 8.5 -73t30 -72.5 t54.5 -63.5t86 -44t120 -17h168q67 0 120 17t86 44t54.5 63.5t30 72.5t8.5 73v45q0 149 -97 218t-286 69t-286 -69t-97 -218v-45z" />
<glyph unicode="9" d="M131 995v11q0 267 113 396.5t360 129.5q231 0 342 -130.5t111 -400.5v-481q0 -281 -125 -406.5t-377 -125.5q-156 0 -326 39q-14 4 -22.5 7t-15.5 10.5t-7 18.5v21q0 29 33 29q12 0 16 -2q95 -20 160.5 -28.5t161.5 -8.5q216 0 314 100t98 346v127q-204 -53 -379 -53 q-70 0 -133 11.5t-123.5 41t-104 73.5t-70 114.5t-26.5 160.5zM221 995q0 -73 22 -129.5t57 -91t84 -57t98.5 -31t105.5 -8.5q196 0 379 49v274q0 242 -87 345.5t-276 103.5q-190 0 -286.5 -103.5t-96.5 -340.5v-11z" />
<glyph unicode=":" horiz-adv-x="364" d="M137 27v151q0 17 11 28t28 11h12q17 0 28 -11t11 -28v-151q0 -17 -11 -28t-28 -11h-12q-17 0 -28 11t-11 28zM137 920v151q0 17 11 28t28 11h12q17 0 28 -11t11 -28v-151q0 -17 -11 -28t-28 -11h-12q-17 0 -28 11t-11 28z" />
<glyph unicode=";" horiz-adv-x="364" d="M25 -184q0 2 4 18l108 344q9 39 41 39h39q25 0 25 -22q0 -1 -4 -17l-129 -344q-8 -22 -15.5 -30.5t-23.5 -8.5h-25q-20 0 -20 21zM137 920v151q0 17 11 28t28 11h12q17 0 28 -11t11 -28v-151q0 -17 -11 -28t-28 -11h-12q-17 0 -28 11t-11 28z" />
<glyph unicode="&#x3c;" d="M229 801q0 34 31 59l545 447q17 14 33 14q12 0 20 -8l14 -15q11 -11 11 -22q0 -17 -17 -31l-542 -444l542 -445q17 -14 17 -30q0 -12 -11 -23l-14 -14q-8 -8 -20 -8q-16 0 -33 14l-545 446q-31 25 -31 60z" />
<glyph unicode="=" d="M180 586v20q0 33 41 33h748q41 0 41 -33v-20q0 -33 -41 -33h-748q-41 0 -41 33zM180 995v21q0 33 41 33h748q41 0 41 -33v-21q0 -32 -41 -32h-748q-41 0 -41 32z" />
<glyph unicode="&#x3e;" d="M334 326q0 17 16 30l543 445l-543 444q-16 13 -16 31q0 12 10 22l14 15q8 8 21 8q16 0 33 -14l544 -447q31 -25 31 -59q0 -35 -31 -60l-544 -446q-17 -14 -33 -14q-13 0 -21 8l-14 14q-10 10 -10 23z" />
<glyph unicode="?" horiz-adv-x="868" d="M72 1462v17q0 16 6.5 25.5t27.5 13.5q118 14 244 14q80 0 147.5 -15.5t125 -48.5t90 -92.5t32.5 -140.5v-16q0 -95 -46.5 -175.5t-178.5 -212.5l-61 -61q-77 -77 -100 -124t-23 -130v-123q0 -17 -11 -28t-28 -11h-12q-17 0 -28 11t-11 28v123q0 99 31 165t120 155l58 57 q117 117 154.5 183t37.5 143v16q0 115 -72.5 166t-224.5 51q-80 0 -248 -14h-4q-26 0 -26 24zM244 27v151q0 17 11 28t28 11h12q17 0 28 -11t11 -28v-151q0 -17 -11 -28t-28 -11h-12q-17 0 -28 11t-11 28z" />
<glyph unicode="@" horiz-adv-x="1552" d="M102 356q0 37 2 60l29 293q12 130 67 242t144.5 196t219 132t282.5 48q143 0 260 -47t191 -126.5t113.5 -179.5t39.5 -210q0 -211 -38.5 -330.5t-127.5 -183.5q-160 -117 -557 -117q-143 0 -216 73.5t-73 194.5q0 23 2 37l23 242q13 136 95.5 218.5t234.5 82.5 q114 0 251 -29q11 -4 15.5 -6t9 -7t4.5 -13v-4l-63 -695q56 6 102 20t80.5 30.5t61 43.5t44 52t30 64t19 70t10 80t4.5 84.5t1 92.5q0 102 -35 190t-99.5 153.5t-164.5 102.5t-223 37q-260 0 -429 -154t-190 -386l-28 -291q-3 -35 -3 -60q0 -99 32 -184.5t94 -152.5 t164 -105.5t233 -38.5q163 0 258 10h2h6q16 0 23.5 -4t7.5 -20q0 -11 -2 -15q-6 -26 -41 -32q-107 -17 -262 -17q-115 0 -213.5 30t-169 82t-121 122.5t-75 153t-24.5 171.5zM524 403q0 -89 50 -138.5t153 -49.5h70q86 0 125 6l59 662q-124 18 -193 18q-216 0 -239 -223 l-23 -240q-2 -14 -2 -35z" />
<glyph unicode="A" horiz-adv-x="1267" d="M82 45l420 1387q29 100 133 100q103 0 131 -98l420 -1389q3 -12 3 -21q0 -30 -32 -30h-24q-24 0 -33 26l-172 555h-590l-168 -555q-11 -26 -33 -26h-26q-32 0 -32 30q0 9 3 21zM362 666h543l-223 743q-11 41 -47 41q-37 0 -47 -39z" />
<glyph unicode="B" d="M164 41v1440q0 17 10.5 27t28.5 12q168 12 307 12q91 0 167 -9t152 -33.5t127.5 -65t84 -107.5t32.5 -156v-22q0 -127 -63 -212.5t-181 -127.5q120 -36 186 -124.5t66 -223.5v-35q0 -104 -35.5 -183t-91 -125t-134 -74.5t-152 -38t-158.5 -9.5q-160 0 -307 16 q-39 3 -39 39zM254 80q176 -12 256 -12q81 0 145 7.5t129.5 30t109 59.5t70.5 101t27 150v35q0 50 -10 92.5t-36 82.5t-66 68t-105 45t-149 17h-371v-676zM254 844h371q358 0 358 295v22q0 73 -27 127t-69.5 84.5t-107 49t-127 24.5t-142.5 6q-54 0 -151 -4t-105 -4v-600z " />
<glyph unicode="C" horiz-adv-x="1099" d="M123 625v270q0 142 28 253.5t74.5 182.5t112.5 117t136 65t151 19q161 0 354 -21q39 -4 39 -34v-25q0 -17 -9.5 -22t-29.5 -3q-241 19 -354 19q-89 0 -161.5 -30.5t-130 -94t-89 -172t-31.5 -254.5v-270q0 -146 31.5 -254.5t89 -172t130 -94t161.5 -30.5q217 0 354 18 q20 2 29.5 -2.5t9.5 -21.5v-25q0 -31 -39 -35q-183 -20 -354 -20q-81 0 -151 19t-136 65t-112.5 117t-74.5 182.5t-28 253.5z" />
<glyph unicode="D" horiz-adv-x="1255" d="M164 43v1434q0 27 35 39q101 16 336 16q598 0 598 -645v-254q0 -172 -43.5 -298t-125 -201t-188 -110.5t-241.5 -35.5q-235 0 -336 16q-35 12 -35 39zM254 76q120 -8 281 -8q507 0 507 565v254q0 128 -25.5 226t-70 161.5t-109.5 104t-138.5 57t-163.5 16.5 q-101 0 -281 -12v-1364z" />
<glyph unicode="E" horiz-adv-x="1091" d="M164 229v1063q0 124 62.5 177t185.5 53h528q39 0 39 -35v-17q0 -32 -39 -32h-528q-82 0 -120 -29t-38 -117v-450h686q39 0 39 -33v-21q0 -34 -39 -34h-686v-525q0 -87 38 -116t120 -29h528q39 0 39 -33v-16q0 -35 -39 -35h-528q-123 0 -185.5 52.5t-62.5 176.5z" />
<glyph unicode="F" horiz-adv-x="1060" d="M164 39v1253q0 124 62.5 177t185.5 53h528q39 0 39 -35v-17q0 -32 -39 -32h-528q-82 0 -120 -29t-38 -117v-450h686q39 0 39 -33v-21q0 -34 -39 -34h-686v-715q0 -39 -35 -39h-20q-35 0 -35 39z" />
<glyph unicode="G" horiz-adv-x="1204" d="M123 633v254q0 148 31 263.5t81 186t119 116t137.5 62.5t145.5 17q184 0 369 -21q34 -4 34 -32v-21q0 -37 -43 -31q-190 21 -360 21q-46 0 -88 -7.5t-85.5 -25.5t-79.5 -46t-68.5 -72.5t-54.5 -101.5t-35 -135.5t-13 -172.5v-254q0 -282 111.5 -420.5t312.5 -138.5 q212 0 311 18v651q0 39 35 39h21q34 0 34 -39v-690q0 -17 -10 -27t-24 -12q-20 -2 -73 -8t-85 -9t-90 -6t-119 -3q-112 0 -203.5 38t-162 114t-109.5 202t-39 291z" />
<glyph unicode="H" horiz-adv-x="1325" d="M164 39v1444q0 39 35 39h20q35 0 35 -39v-627h819v627q0 39 35 39h18q35 0 35 -39v-1444q0 -39 -35 -39h-18q-35 0 -35 39v733h-819v-733q0 -39 -35 -39h-20q-35 0 -35 39z" />
<glyph unicode="I" horiz-adv-x="458" d="M184 39v1444q0 39 35 39h21q34 0 34 -39v-1444q0 -39 -34 -39h-21q-35 0 -35 39z" />
<glyph unicode="J" horiz-adv-x="458" d="M-90 -350q0 31 41 31h29q127 0 165.5 37t38.5 159v1606q0 39 35 39h21q34 0 34 -39v-1606q0 -147 -65 -211.5t-229 -64.5h-29q-41 0 -41 28v21z" />
<glyph unicode="K" horiz-adv-x="1110" d="M164 39v1444q0 17 11 28t28 11h12q17 0 28 -11t11 -28v-656l696 680q29 23 47 23q16 0 27.5 -11t11.5 -24q0 -21 -16 -37l-688 -667l702 -730q17 -17 17 -33q-1 -6 -3 -11q-8 -21 -38 -21q-31 0 -47 16l-709 738v-711q0 -39 -35 -39h-20q-35 0 -35 39z" />
<glyph unicode="L" horiz-adv-x="989" d="M164 229v1254q0 39 35 39h20q35 0 35 -39v-1254q0 -87 38 -116t120 -29h467q39 0 39 -33v-16q0 -35 -39 -35h-467q-123 0 -185.5 52.5t-62.5 176.5z" />
<glyph unicode="M" horiz-adv-x="1495" d="M164 39v1393q0 50 27.5 75t76.5 25q65 0 94 -64l359 -751q12 -27 27 -27q14 0 26 27l359 751q29 64 94 64q49 0 76.5 -25t27.5 -75v-1393q0 -39 -35 -39h-20q-35 0 -35 39v1393q0 14 -14 14q-11 0 -21 -19l-354 -747q-23 -43 -45.5 -58.5t-58.5 -15.5t-59 15.5t-46 58.5 l-354 747q-9 19 -21 19q-14 0 -14 -14v-1393q0 -39 -35 -39h-20q-35 0 -35 39z" />
<glyph unicode="N" horiz-adv-x="1333" d="M164 39v1393q0 47 27.5 73.5t72.5 26.5q40 0 61.5 -16t36.5 -48l689 -1380q6 -14 16 -14t10 18v1391q0 39 33 39h25q34 0 34 -39v-1391q0 -48 -26 -76t-66 -28q-51 0 -69 14q-21 18 -37 47l-690 1383q-8 14 -17 14q-10 0 -10 -14v-1393q0 -39 -35 -39h-20q-35 0 -35 39z " />
<glyph unicode="O" horiz-adv-x="1294" d="M123 633v254q0 167 38.5 292.5t109.5 202t165 113.5t211 37t211 -37t165 -113.5t109.5 -202t38.5 -292.5v-254q0 -167 -38.5 -292.5t-109.5 -202t-165 -113.5t-211 -37t-211 37t-165 113.5t-109.5 202t-38.5 292.5zM213 633q0 -123 21.5 -218.5t59.5 -159t93.5 -105 t119 -59t140.5 -17.5t140.5 17.5t119 59t93.5 105t59.5 159t21.5 218.5v254q0 123 -21.5 218.5t-59.5 159t-93.5 105t-119 59t-140.5 17.5t-140.5 -17.5t-119 -59t-93.5 -105t-59.5 -159t-21.5 -218.5v-254z" />
<glyph unicode="P" horiz-adv-x="1105" d="M164 39v1444q0 14 11 26t24 13q120 10 278 10q557 0 557 -416v-35q0 -231 -142 -334.5t-415 -103.5q-147 0 -223 8v-612q0 -39 -35 -39h-20q-35 0 -35 39zM254 731q84 -8 223 -8q242 0 354.5 83t112.5 275v35q0 184 -114.5 260t-352.5 76q-164 0 -223 -6v-715z" />
<glyph unicode="Q" horiz-adv-x="1294" d="M123 633v254q0 167 38.5 292.5t109.5 202t165 113.5t211 37t211 -37t165 -113.5t109.5 -202t38.5 -292.5v-254q0 -313 -129 -471.5t-352 -171.5v-137q0 -40 2 -64t9 -45.5t19 -32t34.5 -18.5t51.5 -10t75 -2h43q41 0 41 -33v-15q0 -32 -41 -32h-43q-78 0 -124 8t-85 33.5 t-55.5 76.5t-16.5 134v137q-221 13 -349 172t-128 471zM213 633q0 -123 21.5 -218.5t59.5 -159t93.5 -105t119 -59t140.5 -17.5t140.5 17.5t119 59t93.5 105t59.5 159t21.5 218.5v254q0 123 -21.5 218.5t-59.5 159t-93.5 105t-119 59t-140.5 17.5t-140.5 -17.5t-119 -59 t-93.5 -105t-59.5 -159t-21.5 -218.5v-254z" />
<glyph unicode="R" horiz-adv-x="1224" d="M164 39v1446q0 14 11 26t24 13q93 8 319 8q286 0 421.5 -95.5t135.5 -322.5v-10q0 -185 -89.5 -281t-276.5 -127l413 -637q9 -14 9 -29q0 -4 -1 -10q-5 -20 -30 -20h-27q-17 0 -31 18l-436 668q-7 -2 -45.5 -1t-42.5 1h-162q-67 0 -102 2v-649q0 -39 -35 -39h-20 q-35 0 -35 39zM254 774q27 0 130.5 -1t133.5 -1q124 0 207.5 15t144 52.5t88 102t27.5 162.5v10q0 185 -113.5 258.5t-353.5 73.5q-180 0 -264 -8v-664z" />
<glyph unicode="S" horiz-adv-x="1085" d="M113 1214q0 91 40 155.5t111 98.5t151 49t177 15q98 0 285 -19q32 -5 43.5 -12.5t11.5 -27.5v-11q0 -34 -43 -34q-9 0 -21 2l-112 8q-113 8 -166 8q-201 0 -293 -57.5t-92 -174.5q0 -53 16 -96t55 -82.5t84 -71.5t121 -79l131 -80q81 -50 131 -83.5t99 -75t74.5 -79.5 t41 -85t15.5 -103q0 -391 -475 -391q-173 0 -299 20q-32 5 -44 13t-12 30v8q0 35 39 35h8q126 -20 308 -20q112 0 189 23t118 66.5t57.5 95t16.5 120.5q0 37 -6.5 67t-24.5 58t-38.5 49.5t-60 50t-77 52.5t-99.5 63q-7 4 -10 6l-129 80q-66 41 -106 68.5t-86 67.5t-70.5 77 t-41.5 87.5t-17 108.5z" />
<glyph unicode="T" horiz-adv-x="1169" d="M61 1468v19q0 35 39 35h969q39 0 39 -35v-19q0 -30 -39 -30h-438v-1399q0 -39 -35 -39h-21q-34 0 -34 39v1399h-441q-39 0 -39 30z" />
<glyph unicode="U" horiz-adv-x="1296" d="M164 541v942q0 39 35 39h20q35 0 35 -39v-942q0 -231 93 -350t302 -119q208 0 300.5 118.5t92.5 350.5v942q0 39 35 39h21q35 0 35 -39v-942q0 -266 -119.5 -409.5t-364.5 -143.5t-365 143.5t-120 409.5z" />
<glyph unicode="V" horiz-adv-x="1290" d="M92 1470q-2 8 -2 15q0 11 6 21q10 16 29 16h22q23 0 33 -29l418 -1378q12 -41 47 -41t47 41l418 1378q6 29 33 29h22q19 0 29 -16q6 -10 6 -21q0 -7 -2 -15l-420 -1382q-32 -100 -133 -100t-133 100z" />
<glyph unicode="W" horiz-adv-x="1613" d="M92 1475q-2 7 -2 13q0 11 6 20q10 14 29 14h20q28 0 37 -33l248 -1387q6 -30 12 -30q9 0 17 30l256 797q24 80 92 80t92 -80l256 -797q9 -30 16 -30t13 30l248 1387q9 33 36 33h21q19 0 29 -14q6 -9 6 -20q0 -6 -2 -13l-252 -1391q-18 -96 -99 -96q-43 0 -64 24t-34 68 l-250 792q-7 25 -16 25t-16 -25l-250 -792q-12 -44 -34 -68t-65 -24q-80 0 -98 96z" />
<glyph unicode="X" horiz-adv-x="1232" d="M84 20q-3 7 -3 13q0 13 9 26l473 719l-450 682q-8 14 -9.5 28t6 24t23.5 10h23q18 0 32 -19l426 -647l428 647q5 6 16 12.5t17 6.5h19q24 0 31 -21t-7 -41l-450 -684l473 -717q9 -13 9 -26q0 -7 -2 -13q-8 -20 -32 -20h-16q-7 0 -17.5 6t-15.5 12l-451 682l-450 -682 q-4 -6 -15.5 -12t-17.5 -6h-18q-23 0 -31 20z" />
<glyph unicode="Y" horiz-adv-x="1128" d="M98 1466q-7 17 -7 29q0 27 36 27h20q22 0 33 -25l322 -717q21 -45 32 -58t29 -13q19 0 30.5 13.5t31.5 57.5l321 717q11 25 33 25h20q36 0 36 -27q0 -12 -7 -29l-323 -714q-44 -95 -97 -119v-594q0 -39 -35 -39h-20q-35 0 -35 39v594q-52 23 -96 119z" />
<glyph unicode="Z" horiz-adv-x="1218" d="M139 88q0 38 23 74l776 1249q4 8 4 14q0 13 -16 13h-742q-43 0 -43 30v21q0 33 43 33h742q57 0 84 -17q34 -21 34 -65q0 -32 -22 -70l-782 -1264q-4 -12 -4 -14q0 -8 14 -8h803q43 0 43 -31v-20q0 -33 -43 -33h-803q-111 0 -111 88z" />
<glyph unicode="[" horiz-adv-x="610" d="M184 -360v1843q0 39 35 39h311q39 0 39 -35v-17q0 -32 -39 -32h-256v-1753h256q39 0 39 -35v-17q0 -32 -39 -32h-311q-35 0 -35 39z" />
<glyph unicode="\" horiz-adv-x="665" d="M43 1507q0 25 23 25h43q6 0 10 -2t7 -4t5.5 -7t3.5 -7.5t3 -9.5t3 -9l482 -1466q2 -2 2 -15q0 -24 -21 -24h-45q-5 0 -9 1t-7 4t-5 4.5t-4 7t-2.5 7t-3 8t-2.5 7.5l-481 1466q-2 2 -2 14z" />
<glyph unicode="]" horiz-adv-x="610" d="M41 -350q0 35 39 35h256v1753h-256q-39 0 -39 32v17q0 35 39 35h311q35 0 35 -39v-1843q0 -39 -35 -39h-311q-39 0 -39 32v17z" />
<glyph unicode="^" d="M242 1165q0 6 10 23l240 307q25 30 36 34q8 3 19 3h94q12 0 21 -4.5t14 -10t20 -22.5l240 -307q10 -17 10 -23q0 -18 -22 -18h-37q-7 0 -12.5 1.5t-10.5 5.5t-8 7.5t-10 12.5t-12 14l-240 285l-240 -285q-4 -5 -10 -12t-8.5 -10.5t-7 -8t-8 -6t-8.5 -3t-11 -1.5h-37 q-22 0 -22 18z" />
<glyph unicode="_" horiz-adv-x="952" d="M-61 -147q0 32 41 32h993q41 0 41 -32v-21q0 -33 -41 -33h-993q-41 0 -41 33v21z" />
<glyph unicode="`" horiz-adv-x="675" d="M98 1579q0 14 23 14h53q16 0 24 -5.5t23 -24.5l205 -263q8 -8 8 -20q0 -14 -18 -14h-45q-6 0 -10.5 1t-7.5 2.5t-6.5 5.5t-5.5 6t-7 8.5t-8 10.5l-220 263q-8 8 -8 16z" />
<glyph unicode="a" horiz-adv-x="999" d="M102 317v27q0 108 48.5 176t160.5 103.5t297 35.5h158v74q0 163 -55.5 230t-202.5 67q-115 0 -291 -18h-9q-38 0 -38 30v13q0 19 10 25.5t37 11.5q155 18 291 18q101 0 170.5 -27t107.5 -79.5t54 -117.5t16 -153v-692q0 -17 -12 -29t-29 -12h-10q-17 0 -29 12t-12 29v51 q-189 -104 -348 -104q-49 0 -92 9.5t-84.5 33t-71.5 60t-48 94.5t-18 132zM193 317q0 -249 223 -249q86 0 166.5 24t183.5 80v408h-158q-231 0 -323 -52.5t-92 -183.5v-27z" />
<glyph unicode="b" horiz-adv-x="1032" d="M143 66v1417q0 39 35 39h21q34 0 34 -39v-404q159 31 285 31q402 0 402 -489v-136q0 -152 -40 -260.5t-131.5 -172.5t-230.5 -64q-149 0 -344 39q-19 4 -25 12t-6 27zM233 94q137 -26 285 -26q166 0 238.5 105t72.5 312v136q0 209 -72.5 309t-238.5 100q-158 0 -285 -26 v-910z" />
<glyph unicode="c" horiz-adv-x="894" d="M113 483v138q0 105 22.5 191.5t69.5 154.5t126.5 105.5t186.5 37.5q90 0 248 -18q23 -4 31 -12t8 -25v-15q0 -17 -12 -25t-31 -3q-144 18 -244 18q-169 0 -242 -105.5t-73 -303.5v-138q0 -199 73.5 -307t241.5 -108q100 0 244 18q19 5 31 -3.5t12 -25.5v-14q0 -17 -8 -25 t-31 -12q-158 -18 -248 -18q-106 0 -186 39t-127 108.5t-69.5 156.5t-22.5 191z" />
<glyph unicode="d" horiz-adv-x="1032" d="M113 485v136q0 489 401 489q126 0 285 -31v404q0 39 35 39h20q35 0 35 -39v-1417q0 -19 -6 -27t-25 -12q-195 -39 -344 -39q-205 0 -303 132t-98 365zM203 485q0 -207 72.5 -312t238.5 -105q148 0 285 26v910q-127 26 -285 26q-166 0 -238.5 -100t-72.5 -309v-136z" />
<glyph unicode="e" horiz-adv-x="1046" d="M113 485v136q0 219 108 354t305 135q206 0 307 -129.5t101 -357.5v-56q0 -17 -11 -28t-28 -11h-692v-43q0 -125 28 -210t81.5 -129t115 -61t145.5 -17q156 0 304 34q43 11 43 -26v-15q0 -17 -8 -25.5t-31 -12.5q-149 -35 -308 -35q-80 0 -146 14t-125.5 49.5t-100 91 t-64.5 142.5t-24 200zM203 610h641v13q0 202 -75 304.5t-243 102.5q-164 0 -243.5 -109t-79.5 -300v-11z" />
<glyph unicode="f" horiz-adv-x="772" d="M82 1049v18q0 33 39 33h203v190q0 129 58 185.5t173 56.5q80 0 107 -6q38 -7 38 -33v-14q0 -27 -43 -27h-102q-74 0 -107.5 -36t-33.5 -126v-190h243q39 0 39 -33v-18q0 -33 -39 -33h-243v-977q0 -17 -10 -28t-27 -11h-15q-17 0 -27.5 11t-10.5 28v977h-203q-39 0 -39 33 z" />
<glyph unicode="g" horiz-adv-x="1093" d="M113 -70q0 99 46.5 177t106.5 118l-14 4q-109 33 -109 138q0 39 22 75.5t64 55.5q-106 86 -106 243v17q0 51 9.5 96t38 91.5t73.5 79.5t122.5 54t178.5 21h418q38 0 38 -33v-23q0 -32 -38 -32h-107q113 -96 113 -254v-17q0 -74 -22 -132t-70 -104.5t-132 -71.5t-200 -25 q-135 0 -250 47q-70 -29 -70 -88q0 -46 60 -64l368 -96q70 -18 116 -33t89.5 -38t68.5 -50.5t39.5 -67.5t14.5 -92v-14q0 -318 -434 -318q-225 0 -329.5 85t-104.5 233v18zM201 -70v-18q0 -118 79.5 -180t266.5 -62q100 0 168 15.5t106 48t54 75t16 103.5v14q0 85 -50 122.5 t-208 80.5l-283 74q-73 -48 -111 -111.5t-38 -161.5zM213 741q0 -35 7 -67t29 -67.5t57 -61.5t96.5 -43t142.5 -17q98 0 166 20t104 56.5t51 80t15 99.5v17q0 59 -15.5 104t-52 82.5t-104 57.5t-164.5 20q-82 0 -143 -15.5t-96.5 -39.5t-57 -60t-28.5 -71t-7 -78v-17z" />
<glyph unicode="h" horiz-adv-x="1034" d="M143 27v1456q0 39 35 39h21q34 0 34 -39v-410q129 37 277 37q203 0 297 -105.5t94 -287.5v-690q0 -39 -35 -39h-20q-33 0 -33 39v690q0 155 -72 234t-231 79q-148 0 -277 -37v-966q0 -39 -34 -39h-21q-35 0 -35 39z" />
<glyph unicode="i" horiz-adv-x="417" d="M164 27v1034q0 17 11 28t28 11h12q17 0 28 -11t11 -28v-1034q0 -17 -11 -28t-28 -11h-12q-17 0 -28 11t-11 28zM164 1341v152q0 17 11 28t28 11h12q17 0 28 -11t11 -28v-152q0 -17 -11 -27.5t-28 -10.5h-12q-17 0 -28 10.5t-11 27.5z" />
<glyph unicode="j" horiz-adv-x="417" d="M-78 -346q0 24 43 24h78q70 0 95.5 28.5t25.5 117.5v1237q0 39 33 39h22q35 0 35 -39v-1237q0 -125 -50.5 -174t-160.5 -49q-55 0 -86 6q-22 4 -28.5 9.5t-6.5 18.5v19zM164 1341v152q0 17 11 28t28 11h12q17 0 28 -11t11 -28v-152q0 -17 -11 -27.5t-28 -10.5h-12 q-17 0 -28 10.5t-11 27.5z" />
<glyph unicode="k" horiz-adv-x="909" d="M143 27v1456q0 17 11 28t28 11h13q17 0 27.5 -11t10.5 -28v-862l504 471q21 18 49 18q30 0 40 -24q3 -7 3 -15q0 -16 -16 -29l-502 -458l504 -533q14 -15 14 -30q0 -5 -2 -11q-7 -22 -36 -22q-21 0 -33.5 4t-28.5 20l-496 531v-516q0 -17 -10.5 -28t-27.5 -11h-13 q-17 0 -28 11t-11 28z" />
<glyph unicode="l" horiz-adv-x="417" d="M164 27v1456q0 39 35 39h20q35 0 35 -39v-1456q0 -39 -35 -39h-20q-35 0 -35 39z" />
<glyph unicode="m" horiz-adv-x="1527" d="M143 39v1020q0 18 10 29.5t27 11.5h17q17 0 26.5 -11.5t9.5 -29.5v-37q180 88 312 88q126 0 194 -84q178 84 330 84q139 0 227 -83t88 -255v-733q0 -39 -34 -39h-21q-35 0 -35 39v733q0 140 -60 199t-179 59q-136 0 -277 -69q31 -81 31 -181v-741q0 -39 -31 -39h-30 q-29 0 -29 39v741q0 250 -193 250q-117 0 -293 -86v-905q0 -39 -30 -39h-29q-31 0 -31 39z" />
<glyph unicode="n" horiz-adv-x="1067" d="M143 39v1020q0 18 10 29.5t27 11.5h17q17 0 26.5 -11.5t9.5 -29.5v-33q175 84 330 84q77 0 140 -21.5t114 -66.5t79 -122t28 -181v-680q0 -17 -11 -28t-28 -11h-15q-17 0 -26.5 10.5t-9.5 28.5v680q0 311 -277 311q-146 0 -324 -84v-907q0 -17 -10.5 -28t-27.5 -11h-13 q-17 0 -28 11t-11 28z" />
<glyph unicode="o" horiz-adv-x="1069" d="M113 477v144q0 236 107 362.5t315 126.5t314.5 -126.5t106.5 -362.5v-144q0 -236 -106.5 -362.5t-314.5 -126.5t-315 126.5t-107 362.5zM203 477q0 -409 332 -409q331 0 331 409v144q0 409 -331 409q-332 0 -332 -409v-144z" />
<glyph unicode="p" horiz-adv-x="1032" d="M143 -360v1392q0 19 6 27t25 12q195 39 344 39q205 0 303.5 -133t98.5 -365v-135q0 -489 -402 -489q-131 0 -285 30v-378q0 -39 -34 -39h-21q-35 0 -35 39zM233 94q127 -26 285 -26q166 0 238.5 100t72.5 309v135q0 207 -72.5 312.5t-238.5 105.5q-148 0 -285 -26v-910z " />
<glyph unicode="q" horiz-adv-x="1032" d="M113 477v135q0 233 98 365.5t303 132.5q149 0 344 -39q19 -4 25 -12t6 -27v-1392q0 -39 -35 -39h-20q-35 0 -35 39v378q-154 -30 -285 -30q-401 0 -401 489zM203 477q0 -209 72.5 -309t238.5 -100q158 0 285 26v910q-137 26 -285 26q-166 0 -238.5 -105.5t-72.5 -312.5 v-135z" />
<glyph unicode="r" horiz-adv-x="632" d="M143 39v1020q0 18 10 29.5t27 11.5h17q17 0 26.5 -11.5t9.5 -29.5v-43q78 51 144 72.5t141 21.5q55 0 55 -31v-16q0 -33 -55 -33q-133 0 -285 -94v-897q0 -17 -10.5 -28t-27.5 -11h-13q-17 0 -28 11t-11 28z" />
<glyph unicode="s" horiz-adv-x="901" d="M102 49v23q0 18 13 25.5t32 2.5q196 -32 302 -32q59 0 103 9t81 30.5t56.5 63t19.5 101.5q0 62 -45 108.5t-172 115.5l-132 71q-64 34 -104.5 61.5t-75.5 62t-51 75.5t-16 92q0 55 17 99t46 72t70 46.5t85 26.5t95 8q131 0 293 -18q26 -5 34.5 -10.5t8.5 -24.5v-17 q0 -24 -9.5 -30.5t-33.5 -1.5q-202 22 -285 22q-54 0 -92 -6.5t-71.5 -24t-50.5 -53t-17 -88.5q0 -62 46 -107t152 -106l138 -76q141 -77 200.5 -139.5t59.5 -157.5q0 -284 -355 -284q-168 0 -297 28q-26 5 -35.5 11t-9.5 22z" />
<glyph unicode="t" horiz-adv-x="778" d="M82 1049v20q0 31 39 31h203v211q0 39 34 39h23q33 0 33 -39v-211h243q39 0 39 -31v-20q0 -33 -39 -33h-243v-807q0 -86 33 -113.5t108 -27.5h98q43 0 43 -29v-12q0 -14 -6.5 -21.5t-27.5 -11.5q-31 -6 -107 -6q-117 0 -174 48.5t-57 172.5v807h-203q-39 0 -39 33z" />
<glyph unicode="u" horiz-adv-x="1067" d="M143 381v680q0 17 11 28t28 11h15q17 0 26.5 -10.5t9.5 -28.5v-680q0 -311 277 -311q138 0 324 84v907q0 17 10.5 28t27.5 11h13q17 0 28 -11t11 -28v-1020q0 -18 -10 -29.5t-27 -11.5h-17q-17 0 -26.5 11.5t-9.5 29.5v33q-175 -84 -330 -84q-160 0 -260.5 95.5 t-100.5 295.5z" />
<glyph unicode="v" horiz-adv-x="983" d="M82 1049q-2 10 -2 17q0 11 4 20q8 14 29 14h20q27 0 37 -37l262 -924q12 -43 27 -58t35 -15q19 0 31.5 14.5t25.5 58.5l262 924q10 37 37 37h24q30 0 30 -29q0 -9 -3 -22l-268 -932q-22 -76 -55.5 -102.5t-83.5 -26.5t-86.5 27t-57.5 102z" />
<glyph unicode="w" horiz-adv-x="1540" d="M102 1051q-2 10 -2 17q0 32 39 32h13q7 0 12 -1.5t8.5 -5t5 -5.5t3.5 -8.5t3 -8.5l222 -952q11 -38 14.5 -44.5t13.5 -6.5q7 0 11.5 8t15.5 41l221 790q19 74 88 74t88 -74l221 -790q10 -31 15.5 -40t11.5 -9q5 0 8 1.5t8.5 13.5t12.5 36l221 952q10 23 19 27q6 2 14 2 h12q27 0 35 -12q4 -7 5 -17q0 -9 -3 -20l-226 -953q-14 -61 -37 -85.5t-69 -24.5t-65.5 25.5t-39.5 90.5l-217 779q-7 18 -14 18t-14 -18l-217 -779q-20 -65 -39.5 -90.5t-65.5 -25.5t-69 24.5t-37 85.5z" />
<glyph unicode="x" horiz-adv-x="1009" d="M88 25q0 11 10 28l361 510l-348 488q-9 12 -9 22q0 27 37 27h13q21 0 38 -17l324 -450l313 446q12 21 39 21h19q30 0 30 -25q0 -15 -14 -35l-338 -481l363 -508q6 -9 6 -22q0 -29 -29 -29h-16q-28 0 -39 16l-340 476l-334 -476q-13 -16 -22 -16h-35q-29 0 -29 25z" />
<glyph unicode="y" horiz-adv-x="995" d="M78 -336q0 19 9.5 26t33.5 3q62 -12 133 -12q110 0 158.5 44.5t85.5 178.5l26 96h-28q-50 0 -76.5 22.5t-48.5 92.5l-277 936q-6 22 1.5 35.5t31.5 13.5h18q11 0 18 -5.5t8.5 -8.5t6.5 -15l277 -942q9 -29 20 -37t27 -8h47l280 989q4 10 6.5 14t10 8.5t20.5 4.5h19 q32 0 32 -28q0 -10 -4 -23l-335 -1164q-49 -165 -119 -224.5t-213 -59.5q-49 0 -127 12q-3 1 -10 2.5t-9.5 2t-7 2t-6.5 3.5t-4 4.5t-3 6t-1 8.5v22z" />
<glyph unicode="z" horiz-adv-x="913" d="M82 84q0 45 37 92l600 801q8 8 8 20q0 19 -29 19h-538q-41 0 -41 31v20q0 33 41 33h536q58 0 88.5 -20t30.5 -68q0 -50 -33 -92l-594 -797q-10 -17 -10 -25q0 -14 19 -14h594q40 0 40 -31v-20q0 -33 -40 -33h-586q-123 0 -123 84z" />
<glyph unicode="{" horiz-adv-x="614" d="M61 524v74q79 55 103 112t24 169v417q0 128 55.5 177t196.5 49h95q38 0 38 -35v-17q0 -32 -38 -32h-95q-103 0 -132 -25.5t-29 -116.5v-417q0 -114 -28.5 -186.5t-103.5 -133.5q73 -59 102.5 -131.5t29.5 -183.5v-418q0 -91 29 -116t132 -25h95q38 0 38 -33v-17 q0 -34 -38 -34h-95q-143 0 -197.5 48t-54.5 177v418q0 112 -24 168.5t-103 111.5z" />
<glyph unicode="|" horiz-adv-x="458" d="M184 -360v1843q0 39 35 39h21q34 0 34 -39v-1843q0 -39 -34 -39h-21q-35 0 -35 39z" />
<glyph unicode="}" horiz-adv-x="614" d="M41 -348q0 33 39 33h94q103 0 132.5 25.5t29.5 115.5v418q0 112 29 184t102 131q-75 61 -103 133.5t-28 186.5v417q0 91 -29.5 116.5t-132.5 25.5h-94q-39 0 -39 32v17q0 35 39 35h94q141 0 196.5 -49t55.5 -177v-417q0 -112 24 -169t103 -112v-74q-79 -55 -103 -111.5 t-24 -168.5v-418q0 -129 -54.5 -177t-197.5 -48h-94q-39 0 -39 34v17z" />
<glyph unicode="~" d="M213 776v62q0 107 49 162t133 55q51 0 88 -17.5t76 -52.5l117 -113q63 -63 112 -63q56 0 81.5 29t25.5 102v64q0 16 1 22t6 10t16 4h30q27 0 27 -36v-64q0 -213 -184 -213q-86 0 -158 66l-117 112q-36 36 -62.5 54t-58.5 18q-46 0 -74 -34t-28 -105v-62q0 -16 -1 -22.5 t-6 -11.5t-16 -5h-30q-27 0 -27 39z" />
<glyph unicode="&#xa1;" horiz-adv-x="417" d="M164 -385v1090q0 17 11 27.5t28 10.5h12q17 0 28 -10.5t11 -27.5v-1090q0 -17 -11 -28t-28 -11h-12q-17 0 -28 11t-11 28zM164 920v151q0 17 11 28t28 11h12q17 0 28 -11t11 -28v-151q0 -17 -11 -28t-28 -11h-12q-17 0 -28 11t-11 28z" />
<glyph unicode="&#xa2;" d="M193 483v138q0 100 20.5 182.5t62.5 148.5t113 107t166 49v209q0 39 33 39h20q33 0 33 -39v-207q60 -2 205 -18q23 -4 31 -12t8 -25v-15q0 -28 -33 -28h-10q-144 18 -244 18q-169 0 -242 -105.5t-73 -303.5v-138q0 -199 73.5 -307t241.5 -108q100 0 244 18h10 q33 0 33 -29v-14q0 -17 -8 -25t-31 -12q-145 -16 -205 -18v-207q0 -39 -33 -39h-20q-33 0 -33 39v209q-95 8 -166 50t-113 109.5t-62.5 151t-20.5 182.5z" />
<glyph unicode="&#xa3;" d="M145 791v18q0 17 11.5 26t29.5 9h105v151q0 131 20 226t66 167t126 108t195 36q143 0 303 -19q25 -5 32 -10t7 -22v-17q0 -18 -6 -24t-24 -6h-13q-144 16 -299 16q-77 0 -133 -21t-90.5 -58t-54.5 -96t-27.5 -124.5t-7.5 -155.5v-151h502q37 0 37 -35v-18 q0 -17 -11.5 -26t-29.5 -9h-498v-410q0 -147 -66 -262h685q40 0 40 -29v-22q0 -33 -40 -33h-762q-21 0 -31 12.5t-10 28.5q0 13 6 22q45 73 64.5 134.5t19.5 148.5v410h-109q-37 0 -37 35z" />
<glyph unicode="&#xa4;" d="M113 330q0 16 14 30l162 162q-86 109 -86 244q0 130 84 240l-160 159q-14 14 -14 31q0 15 10 25l14 14q8 8 21 8q18 0 32 -14l160 -160q110 84 240 84q135 0 244 -86l163 164q14 14 31 14q13 0 23 -10l14 -14q10 -10 10 -23q0 -17 -14 -31l-164 -163q82 -107 82 -238 q0 -130 -84 -240l166 -166q14 -14 14 -30q0 -15 -10 -25l-14 -14q-10 -10 -23 -10q-17 0 -31 14l-166 168q-110 -84 -239 -84q-131 0 -238 82l-164 -164q-14 -14 -30 -14q-13 0 -23 10l-14 14q-10 10 -10 23zM289 766q0 -128 87.5 -215.5t215.5 -87.5t215.5 87.5t87.5 215.5 q0 125 -89 213t-214 88q-127 0 -215 -87.5t-88 -213.5z" />
<glyph unicode="&#xa5;" d="M92 520v19q0 32 41 32h416v62l-125 248h-295q-37 0 -37 32v19q0 33 41 33h248l-252 501q-12 29 -4 42.5t33 13.5h24q12 0 19 -4.5t14 -20.5l381 -758l379 758q7 16 14 20.5t19 4.5h22q25 0 33 -13.5t-4 -42.5l-252 -501h252q37 0 37 -33v-19q0 -32 -41 -32h-291 l-125 -248v-62h420q37 0 37 -32v-19q0 -33 -41 -33h-416v-448q0 -39 -35 -39h-20q-35 0 -35 39v448h-420q-37 0 -37 33z" />
<glyph unicode="&#xa6;" horiz-adv-x="458" d="M184 319q0 39 35 39h21q34 0 34 -39v-712q0 -39 -34 -39h-21q-35 0 -35 39v712zM184 739v713q0 39 35 39h21q34 0 34 -39v-713q0 -39 -34 -39h-21q-35 0 -35 39z" />
<glyph unicode="&#xa7;" horiz-adv-x="1067" d="M106 770q0 141 72 219q-40 46 -56 94.5t-16 116.5q0 172 111.5 252t360.5 80q197 0 311 -14q20 -2 27.5 -10.5t7.5 -32.5v-7q0 -41 -43 -38q-14 0 -128.5 8t-174.5 8q-201 0 -291 -59t-90 -187q0 -88 49.5 -146.5t199.5 -150.5l201 -123q128 -77 198 -145t93 -126.5 t23 -137.5q0 -144 -60 -228q60 -80 60 -202q0 -63 -11 -114.5t-43 -103t-83.5 -86.5t-137.5 -57t-201 -22q-182 0 -313 16q-23 4 -30 12t-7 27v12q0 21 9.5 28t29.5 7h4q212 -16 307 -16q92 0 159.5 14t110.5 38.5t69 62.5t36 81.5t10 100.5q0 71 -24.5 120t-79.5 95 t-172 118l-205 125q-168 102 -225.5 178t-57.5 193zM197 770q0 -88 49.5 -146.5t199.5 -150.5l201 -123q123 -74 191 -137q32 60 32 158q0 102 -53.5 165.5t-222.5 168.5l-205 124q-83 51 -141 97q-51 -57 -51 -156z" />
<glyph unicode="&#xa8;" horiz-adv-x="675" d="M139 1354v151q0 17 11 28t28 11h12q17 0 28 -11t11 -28v-151q0 -17 -11 -28t-28 -11h-12q-17 0 -28 11t-11 28zM446 1354v151q0 17 11 28t28 11h13q17 0 28 -11t11 -28v-151q0 -17 -11 -28t-28 -11h-13q-17 0 -28 11t-11 28z" />
<glyph unicode="&#xa9;" horiz-adv-x="1495" d="M92 766q0 133 51.5 255t139 210.5t208.5 141t254 52.5q177 0 328.5 -88.5t240.5 -240.5t89 -330t-89 -328.5t-240.5 -237.5t-328.5 -87q-133 0 -254 51.5t-208.5 139t-139 208.5t-51.5 254zM168 766q0 -157 77 -289.5t210 -209.5t290 -77t290 77t210.5 209.5t77.5 289.5 t-77.5 290.5t-210.5 211.5t-290 78t-290 -78t-210 -211.5t-77 -290.5zM428 698v148q0 101 24 174.5t66.5 114.5t93 60t109.5 19q137 0 199 -12q32 -5 32 -31v-16q0 -25 -28 -25h-9q-75 11 -194 11q-98 0 -156.5 -70t-58.5 -225v-148q0 -155 58.5 -225t156.5 -70 q119 0 194 11h5q32 0 32 -29v-10q0 -28 -32 -33q-62 -12 -199 -12q-59 0 -109.5 19t-93 60t-66.5 114.5t-24 174.5z" />
<glyph unicode="&#xaa;" horiz-adv-x="548" d="M57 1090v14q0 94 62.5 136t208.5 42h75v29q0 85 -26 117t-98 32q-70 0 -152 -10h-4q-31 0 -31 27v6q0 24 33 28q86 11 154 11q107 0 149.5 -55.5t42.5 -155.5v-350q0 -30 -22 -33q-87 -23 -166 -23q-124 0 -175 44t-51 141zM123 1090q0 -67 32 -95t128 -28q70 0 120 12 v240h-73q-119 0 -163 -25.5t-44 -89.5v-14z" />
<glyph unicode="&#xab;" horiz-adv-x="1095" d="M45 551q0 30 29 59l364 334q17 14 33 14q13 0 21 -8l14 -14q10 -10 10 -23q0 -17 -16 -30l-363 -332l363 -332q16 -13 16 -31q0 -12 -10 -22l-14 -14q-9 -9 -21 -9q-15 0 -33 15l-364 334q-29 26 -29 59zM516 551q0 30 29 59l364 334q17 14 33 14q13 0 21 -8l14 -14 q10 -10 10 -23q0 -17 -16 -30l-363 -332l363 -332q16 -13 16 -31q0 -12 -10 -22l-14 -14q-9 -9 -21 -9q-15 0 -33 15l-364 334q-29 26 -29 59z" />
<glyph unicode="&#xac;" d="M180 995v21q0 33 41 33h756q16 0 24.5 -11t8.5 -26v-418q0 -41 -33 -41h-21q-32 0 -32 41v369h-703q-41 0 -41 32z" />
<glyph unicode="&#xad;" horiz-adv-x="704" d="M106 559v16q0 17 11 27t28 10h414q17 0 28 -10t11 -27v-16q0 -33 -39 -33h-414q-39 0 -39 33z" />
<glyph unicode="&#xae;" horiz-adv-x="1261" d="M92 991q0 146 72.5 270t196.5 196.5t270 72.5t270 -72.5t196 -196.5t72 -270t-72 -269.5t-196 -195t-270 -71.5t-270 71.5t-196.5 195t-72.5 269.5zM166 991q0 -193 136 -329t329 -136q126 0 233.5 62t170.5 169t63 234q0 126 -63 233.5t-170.5 170.5t-233.5 63 q-127 0 -234 -63t-169 -170.5t-62 -233.5zM422 682v631q0 11 8.5 21.5t20.5 11.5q62 4 141 4q129 0 193.5 -45.5t64.5 -153.5v-4q0 -82 -37 -126.5t-113 -62.5l168 -260q6 -9 6 -22q0 -27 -28 -27h-10q-12 0 -27 15l-186 284q-7 0 -15.5 1t-15.5 1h-100v-268q0 -11 -9 -22 t-22 -11h-8q-13 0 -22 11t-9 22zM492 1018q16 0 53 -1t47 -1q105 0 146.5 28.5t41.5 102.5v4q0 72 -44 101.5t-144 29.5q-69 0 -100 -2v-262z" />
<glyph unicode="&#xaf;" horiz-adv-x="675" d="M25 1442v22q0 31 41 31h544q41 0 41 -31v-22q0 -33 -41 -33h-544q-41 0 -41 33z" />
<glyph unicode="&#xb0;" horiz-adv-x="677" d="M61 1255q0 115 82 196t197 81t195.5 -80.5t80.5 -196.5q0 -115 -80 -195.5t-196 -80.5q-115 0 -197 80.5t-82 195.5zM141 1255q0 -82 58.5 -140t140.5 -58t140.5 58t58.5 140q0 80 -59 140.5t-140 60.5q-82 0 -140.5 -60t-58.5 -141z" />
<glyph unicode="&#xb1;" d="M139 33v20q0 33 41 33h830q41 0 41 -33v-20q0 -33 -41 -33h-830q-41 0 -41 33zM139 791v20q0 33 41 33h371v373q0 40 33 40h20q33 0 33 -40v-373h373q41 0 41 -33v-20q0 -33 -41 -33h-373v-371q0 -41 -33 -41h-20q-33 0 -33 41v371h-371q-41 0 -41 33z" />
<glyph unicode="&#xb2;" horiz-adv-x="653" d="M80 719v67q0 93 35.5 160t142.5 144l113 77q69 45 93.5 80.5t24.5 95.5q0 58 -44 88.5t-144 30.5q-69 0 -164 -10q-12 -1 -21 -0.5t-14.5 6.5t-5.5 19v6q0 19 7.5 27t31.5 12q83 12 166 12q272 0 272 -191q0 -69 -32.5 -125.5t-122.5 -115.5l-113 -76q-91 -61 -117 -112 t-26 -128v-28h364q37 0 37 -33v-12q0 -33 -37 -33h-409q-16 0 -26.5 12t-10.5 27z" />
<glyph unicode="&#xb3;" horiz-adv-x="653" d="M84 725v8q0 18 9 22.5t30 2.5q119 -13 158 -13q107 0 155.5 40.5t48.5 136.5v22q0 143 -139 143h-207q-37 0 -37 35v8q0 35 37 35h207q43 0 72.5 14t43 37.5t18.5 44.5t5 44v14q0 83 -47.5 113t-156.5 30q-48 0 -158 -12q-12 -1 -20.5 -0.5t-13.5 6.5t-5 19v8 q0 11 1.5 17t9 11.5t22.5 8.5q82 14 164 14q145 0 216.5 -46.5t71.5 -168.5v-14q0 -120 -96 -183q96 -52 96 -178v-22q0 -134 -73 -191t-215 -57q-82 0 -164 14q-15 3 -22.5 8.5t-9 11.5t-1.5 17z" />
<glyph unicode="&#xb4;" horiz-adv-x="675" d="M242 1280q0 12 8 20l205 263q15 19 23 24.5t24 5.5h53q23 0 23 -14q0 -7 -9 -16l-219 -263q-3 -4 -8 -10.5t-7 -8.5t-5.5 -6t-6.5 -5.5t-7.5 -2.5t-10.5 -1h-45q-18 0 -18 14z" />
<glyph unicode="&#xb5;" horiz-adv-x="1067" d="M143 -360v1421q0 17 11 28t28 11h15q17 0 26.5 -10.5t9.5 -28.5v-682q0 -311 314 -311q67 0 149.5 10.5t137.5 27.5v955q0 17 10.5 28t27.5 11h13q17 0 28 -11t11 -28v-983q0 -25 -27 -37q-161 -53 -350 -53q-209 0 -314 118v-466q0 -39 -34 -39h-21q-35 0 -35 39z" />
<glyph unicode="&#xb6;" horiz-adv-x="1226" d="M92 1020v45q0 218 127.5 337.5t345.5 119.5h486q32 0 32 -39v-1843q0 -39 -34 -39h-21q-35 0 -35 39v1798h-114v-1798q0 -39 -35 -39h-21q-35 0 -35 39v923h-223q-218 0 -345.5 119.5t-127.5 337.5z" />
<glyph unicode="&#xb7;" horiz-adv-x="344" d="M127 737v152q0 17 11 28t28 11h12q17 0 28 -11t11 -28v-152q0 -17 -11 -28t-28 -11h-12q-17 0 -28 11t-11 28z" />
<glyph unicode="&#xb8;" horiz-adv-x="675" d="M96 -385q0 12 8 20l172 222q14 18 23 24t25 6h53q22 0 22 -14q0 -8 -8 -16l-186 -222q-3 -4 -8 -10.5t-7 -8.5t-5.5 -6t-6.5 -5.5t-7.5 -2.5t-10.5 -1h-45q-19 0 -19 14z" />
<glyph unicode="&#xb9;" horiz-adv-x="430" d="M35 1470q0 15 5.5 23t11 10t20.5 6l155 23q27 4 35 -6.5t8 -32.5v-776q0 -37 -32 -37h-17q-33 0 -33 37v731l-112 -16q-23 -4 -32 6t-9 32z" />
<glyph unicode="&#xba;" horiz-adv-x="587" d="M61 1176v75q0 130 59.5 200.5t174.5 70.5t173 -70.5t58 -200.5v-75q0 -130 -58 -200.5t-173 -70.5t-174.5 70.5t-59.5 200.5zM129 1176q0 -102 39 -155.5t127 -53.5q87 0 125.5 53t38.5 156v75q0 103 -38.5 156t-125.5 53q-88 0 -127 -53.5t-39 -155.5v-75z" />
<glyph unicode="&#xbb;" horiz-adv-x="1095" d="M109 188q0 18 16 31l362 332l-362 332q-16 13 -16 30q0 13 10 23l14 14q8 8 21 8q15 0 32 -14l365 -334q29 -29 29 -59q0 -33 -29 -59l-365 -334q-18 -15 -32 -15q-12 0 -21 9l-14 14q-10 10 -10 22zM580 188q0 18 16 31l362 332l-362 332q-16 13 -16 30q0 13 10 23 l14 14q8 8 21 8q15 0 32 -14l365 -334q29 -29 29 -59q0 -33 -29 -59l-365 -334q-18 -15 -32 -15q-12 0 -21 9l-14 14q-10 10 -10 22z" />
<glyph unicode="&#xbc;" horiz-adv-x="1294" d="M61 1470q0 15 5.5 23t11 10t20.5 6l156 23q27 4 35 -6.5t8 -32.5v-776q0 -37 -33 -37h-16q-33 0 -33 37v731l-113 -16q-23 -4 -32 6t-9 32zM90 12q0 10 10 27l844 1444q13 25 20 32t23 7h57q17 0 17 -11q0 -10 -12 -28l-844 -1444q-13 -25 -20 -32t-23 -7h-56 q-16 0 -16 12zM645 313q0 27 23 62l301 440q26 39 73 39q60 0 60 -68v-471h94q15 0 26 -8t11 -24v-9q0 -16 -11 -25t-26 -9h-94v-203q0 -37 -33 -37h-16q-33 0 -33 37v203h-289q-40 0 -63 20t-23 53zM735 330q-9 -15 8 -15h277v424q0 8 -3 8.5t-7 -6.5z" />
<glyph unicode="&#xbd;" horiz-adv-x="1357" d="M61 1470q0 15 5.5 23t11 10t20.5 6l156 23q27 4 35 -6.5t8 -32.5v-776q0 -37 -33 -37h-16q-33 0 -33 37v731l-113 -16q-23 -4 -32 6t-9 32zM90 12q0 10 10 27l844 1444q13 25 20 32t23 7h57q17 0 17 -11q0 -10 -12 -28l-844 -1444q-13 -25 -20 -32t-23 -7h-56 q-16 0 -16 12zM803 39v67q0 93 35.5 160t142.5 144l113 77q69 45 93.5 81t24.5 96q0 58 -44 88t-144 30q-69 0 -164 -10q-12 -1 -21 -0.5t-14.5 6.5t-5.5 19v6q0 19 7.5 27t31.5 12q82 12 166 12q272 0 272 -190q0 -69 -32.5 -126t-122.5 -116l-113 -76q-91 -61 -117 -112 t-26 -128v-28h364q37 0 37 -33v-12q0 -33 -37 -33h-409q-16 0 -26.5 12t-10.5 27z" />
<glyph unicode="&#xbe;" horiz-adv-x="1460" d="M61 725v8q0 18 9 22.5t30 2.5q119 -13 158 -13q107 0 156 40.5t49 136.5v22q0 143 -139 143h-207q-37 0 -37 35v8q0 35 37 35h207q43 0 72.5 14t43 37.5t18.5 44.5t5 44v14q0 83 -47.5 113t-157.5 30q-48 0 -158 -12q-12 -1 -20.5 -0.5t-13.5 6.5t-5 19v8q0 11 1.5 17 t9 11.5t22.5 8.5q82 14 164 14q146 0 217.5 -46.5t71.5 -168.5v-14q0 -120 -96 -183q96 -52 96 -178v-22q0 -134 -73.5 -191t-215.5 -57q-82 0 -164 14q-15 3 -22.5 8.5t-9 11.5t-1.5 17zM256 12q0 10 10 27l844 1444q13 25 20 32t23 7h57q17 0 17 -11q0 -9 -13 -28 l-843 -1444q-13 -25 -20 -32t-23 -7h-56q-16 0 -16 12zM811 313q0 27 23 62l301 440q26 39 73 39q60 0 60 -68v-471h94q15 0 26 -8t11 -24v-9q0 -16 -11 -25t-26 -9h-94v-203q0 -37 -33 -37h-16q-33 0 -33 37v203h-289q-40 0 -63 20t-23 53zM901 330q-9 -15 8 -15h277v424 q0 8 -3 8.5t-7 -6.5z" />
<glyph unicode="&#xbf;" horiz-adv-x="868" d="M123 -121q0 93 46.5 174t178.5 213l62 62q77 77 99.5 124t22.5 130v123q0 17 11 27.5t28 10.5h13q17 0 28 -10.5t11 -27.5v-123q0 -98 -31.5 -164.5t-120.5 -155.5l-57 -57q-118 -118 -155.5 -184t-37.5 -142v-16q0 -115 72.5 -166t224.5 -51q80 0 248 14h4q27 0 27 -25 v-16q0 -16 -7 -25.5t-28 -13.5q-118 -14 -244 -14q-80 0 -147.5 15.5t-125 48.5t-90 92.5t-32.5 140.5v16zM535 920v151q0 17 10.5 28t27.5 11h13q17 0 28 -11t11 -28v-151q0 -17 -11 -28t-28 -11h-13q-17 0 -27.5 11t-10.5 28z" />
<glyph unicode="&#xc0;" horiz-adv-x="1267" d="M82 45l420 1387q29 100 133 100q103 0 131 -98l420 -1389q13 -51 -29 -51h-24q-24 0 -33 26l-172 555h-590l-168 -555q-11 -26 -33 -26h-26q-42 0 -29 51zM362 666h543l-223 743q-11 41 -47 41q-37 0 -47 -39zM416 1939q0 15 22 15h54q16 0 24 -6t23 -25l204 -262 q9 -9 9 -21q0 -14 -19 -14h-45q-7 0 -11.5 1t-9.5 5t-7 6.5t-8 10.5l-9 12l-219 262q-8 8 -8 16z" />
<glyph unicode="&#xc1;" horiz-adv-x="1267" d="M82 45l420 1387q29 100 133 100q103 0 131 -98l420 -1389q13 -51 -29 -51h-24q-24 0 -33 26l-172 555h-590l-168 -555q-11 -26 -33 -26h-26q-42 0 -29 51zM362 666h543l-223 743q-11 41 -47 41q-37 0 -47 -39zM514 1638q0 13 8 21l205 262q15 19 23 25t24 6h53 q23 0 23 -15q0 -8 -8 -16l-219 -262l-9 -12t-8 -10.5t-7 -6.5t-9.5 -5t-11.5 -1h-46q-18 0 -18 14z" />
<glyph unicode="&#xc2;" horiz-adv-x="1267" d="M82 45l420 1387q29 100 133 100q103 0 131 -98l420 -1389q13 -51 -29 -51h-24q-24 0 -33 26l-172 555h-590l-168 -555q-11 -26 -33 -26h-26q-42 0 -29 51zM332 1640q0 13 8 21l205 262q15 19 23 25t24 6h82q16 0 24 -6t23 -25l205 -262q8 -8 8 -21q0 -14 -19 -14h-45 q-7 0 -11.5 1t-9.5 5t-7 6.5t-8 10.5l-9 12l-192 231l-193 -231l-9 -12t-8 -10.5t-7 -6.5t-9.5 -5t-11.5 -1h-45q-18 0 -18 14zM362 666h543l-223 743q-11 41 -47 41q-37 0 -47 -39z" />
<glyph unicode="&#xc3;" horiz-adv-x="1267" d="M82 45l420 1387q29 100 133 100q103 0 131 -98l420 -1389q13 -51 -29 -51h-24q-24 0 -33 26l-172 555h-590l-168 -555q-11 -26 -33 -26h-26q-42 0 -29 51zM305 1659v53q0 92 43 139t119 47q79 0 135 -53l98 -96q57 -57 101 -57q41 0 61.5 23t20.5 85v53q0 19 3.5 26 t16.5 7h35q23 0 23 -33v-53q0 -92 -42.5 -139t-117.5 -47q-81 0 -137 53l-99 96q-22 22 -32 31t-28.5 18t-37.5 9q-41 0 -62.5 -23.5t-21.5 -85.5v-53q0 -18 -4 -25.5t-17 -7.5h-34q-23 0 -23 33zM362 666h543l-223 743q-11 41 -47 41q-37 0 -47 -39z" />
<glyph unicode="&#xc4;" horiz-adv-x="1267" d="M82 45l420 1387q29 100 133 100q103 0 131 -98l420 -1389q13 -51 -29 -51h-24q-24 0 -33 26l-172 555h-590l-168 -555q-11 -26 -33 -26h-26q-42 0 -29 51zM362 666h543l-223 743q-11 41 -47 41q-37 0 -47 -39zM434 1706v152q0 17 11 27.5t28 10.5h12q17 0 28 -10.5 t11 -27.5v-152q0 -17 -11 -28t-28 -11h-12q-17 0 -28 11t-11 28zM741 1706v152q0 17 11 27.5t28 10.5h13q17 0 27.5 -10.5t10.5 -27.5v-152q0 -17 -10.5 -28t-27.5 -11h-13q-17 0 -28 11t-11 28z" />
<glyph unicode="&#xc5;" horiz-adv-x="1267" d="M82 45l420 1387q29 100 133 100q103 0 131 -98l420 -1389q13 -51 -29 -51h-24q-24 0 -33 26l-172 555h-590l-168 -555q-11 -26 -33 -26h-26q-42 0 -29 51zM362 666h543l-223 743q-11 41 -47 41q-37 0 -47 -39zM442 1817q0 78 56.5 134t134.5 56t134 -56t56 -134 t-56 -134.5t-134 -56.5t-134.5 56.5t-56.5 134.5zM516 1817q0 -50 34 -84.5t83 -34.5t84 35t35 84t-34.5 83.5t-84.5 34.5q-49 0 -83 -34t-34 -84z" />
<glyph unicode="&#xc6;" horiz-adv-x="1800" d="M63 45l420 1376q14 48 48.5 74.5t84.5 26.5h1029q38 0 38 -35v-17q0 -32 -38 -32h-687v-596h687q38 0 38 -33v-21q0 -34 -38 -34h-687v-588q0 -46 14.5 -64t65.5 -18h607q38 0 38 -33v-16q0 -35 -38 -35h-607q-90 0 -130 39.5t-40 126.5v409h-549l-167 -555 q-11 -26 -33 -26h-27q-42 0 -29 51zM344 666h524v772h-252q-38 0 -47 -39z" />
<glyph unicode="&#xc7;" horiz-adv-x="1099" d="M123 625v270q0 142 28 253.5t74.5 182.5t112.5 117t136 65t151 19q161 0 354 -21q39 -4 39 -34v-25q0 -17 -9.5 -22t-29.5 -3q-241 19 -354 19q-89 0 -161.5 -30.5t-130 -94t-89 -172t-31.5 -254.5v-270q0 -146 31.5 -254.5t89 -172t130 -94t161.5 -30.5q217 0 354 18 q20 2 29.5 -2.5t9.5 -21.5v-25q0 -31 -39 -35q-183 -20 -354 -20q-81 0 -151 19t-136 65t-112.5 117t-74.5 182.5t-28 253.5zM397 -385q0 11 9 20l172 222q15 19 23 24.5t24 5.5h53q22 0 22 -14q0 -8 -8 -16l-186 -222q-3 -4 -8 -10.5t-7 -8.5t-5.5 -6t-6.5 -5.5t-7.5 -2.5 t-10.5 -1h-45q-19 0 -19 14z" />
<glyph unicode="&#xc8;" horiz-adv-x="1091" d="M164 229v1063q0 124 62.5 177t185.5 53h528q39 0 39 -35v-17q0 -32 -39 -32h-528q-82 0 -120 -29t-38 -117v-450h686q39 0 39 -33v-21q0 -34 -39 -34h-686v-525q0 -87 38 -116t120 -29h528q39 0 39 -33v-16q0 -35 -39 -35h-528q-123 0 -185.5 52.5t-62.5 176.5zM350 1939 q0 15 23 15h53q16 0 24 -6t23 -25l205 -262q8 -8 8 -21q0 -14 -18 -14h-45q-7 0 -11.5 1t-9.5 5t-7 6.5t-8 10.5l-9 12l-220 262q-8 8 -8 16z" />
<glyph unicode="&#xc9;" horiz-adv-x="1091" d="M164 229v1063q0 124 62.5 177t185.5 53h528q39 0 39 -35v-17q0 -32 -39 -32h-528q-82 0 -120 -29t-38 -117v-450h686q39 0 39 -33v-21q0 -34 -39 -34h-686v-525q0 -87 38 -116t120 -29h528q39 0 39 -33v-16q0 -35 -39 -35h-528q-123 0 -185.5 52.5t-62.5 176.5zM494 1640 q0 13 8 21l205 262q15 19 23 25t24 6h53q22 0 22 -15q0 -8 -8 -16l-219 -262l-9 -12t-8 -10.5t-7 -6.5t-9.5 -5t-11.5 -1h-45q-18 0 -18 14z" />
<glyph unicode="&#xca;" horiz-adv-x="1091" d="M164 229v1063q0 124 62.5 177t185.5 53h528q39 0 39 -35v-17q0 -32 -39 -32h-528q-82 0 -120 -29t-38 -117v-450h686q39 0 39 -33v-21q0 -34 -39 -34h-686v-525q0 -87 38 -116t120 -29h528q39 0 39 -33v-16q0 -35 -39 -35h-528q-123 0 -185.5 52.5t-62.5 176.5zM268 1640 q0 13 8 21l205 262q15 19 23 25t24 6h82q16 0 24 -6t23 -25l205 -262q8 -8 8 -21q0 -14 -18 -14h-45q-7 0 -11.5 1t-9.5 5t-7 6.5t-8 10.5l-9 12l-193 231l-192 -231l-9 -12t-8 -10.5t-7 -6.5t-9.5 -5t-11.5 -1h-45q-19 0 -19 14z" />
<glyph unicode="&#xcb;" horiz-adv-x="1091" d="M164 229v1063q0 124 62.5 177t185.5 53h528q39 0 39 -35v-17q0 -32 -39 -32h-528q-82 0 -120 -29t-38 -117v-450h686q39 0 39 -33v-21q0 -34 -39 -34h-686v-525q0 -87 38 -116t120 -29h528q39 0 39 -33v-16q0 -35 -39 -35h-528q-123 0 -185.5 52.5t-62.5 176.5zM383 1706 v152q0 17 11 27.5t28 10.5h12q17 0 28 -10.5t11 -27.5v-152q0 -17 -11 -28t-28 -11h-12q-17 0 -28 11t-11 28zM690 1706v152q0 17 11 27.5t28 10.5h12q17 0 28 -10.5t11 -27.5v-152q0 -17 -11 -28t-28 -11h-12q-17 0 -28 11t-11 28z" />
<glyph unicode="&#xcc;" horiz-adv-x="458" d="M25 1939q0 15 22 15h53q16 0 24 -6t23 -25l205 -262q8 -8 8 -21q0 -14 -18 -14h-45q-7 0 -11.5 1t-9.5 5t-7 6.5t-8 10.5l-9 12l-219 262q-8 8 -8 16zM184 39v1444q0 39 35 39h21q34 0 34 -39v-1444q0 -39 -34 -39h-21q-35 0 -35 39z" />
<glyph unicode="&#xcd;" horiz-adv-x="458" d="M102 1640q0 12 9 21l204 262q15 19 23 25t24 6h54q22 0 22 -15q0 -8 -8 -16l-219 -262l-9 -12t-8 -10.5t-7 -6.5t-9.5 -5t-11.5 -1h-45q-19 0 -19 14zM184 39v1444q0 39 35 39h21q34 0 34 -39v-1444q0 -39 -34 -39h-21q-35 0 -35 39z" />
<glyph unicode="&#xce;" horiz-adv-x="458" d="M-72 1640q0 12 9 21l204 262q15 19 23 25t24 6h82q16 0 24 -6t23 -25l205 -262q8 -8 8 -21q0 -14 -18 -14h-45q-7 0 -11.5 1t-9.5 5t-7 6.5t-8 10.5l-9 12l-193 231l-192 -231l-9 -12t-8 -10.5t-7 -6.5t-9.5 -5t-11.5 -1h-45q-19 0 -19 14zM184 39v1444q0 39 35 39h21 q34 0 34 -39v-1444q0 -39 -34 -39h-21q-35 0 -35 39z" />
<glyph unicode="&#xcf;" horiz-adv-x="458" d="M31 1706v152q0 17 11 27.5t28 10.5h12q17 0 28 -10.5t11 -27.5v-152q0 -17 -11 -28t-28 -11h-12q-17 0 -28 11t-11 28zM184 39v1444q0 39 35 39h21q34 0 34 -39v-1444q0 -39 -34 -39h-21q-35 0 -35 39zM338 1706v152q0 17 11 27.5t28 10.5h12q17 0 28 -10.5t11 -27.5 v-152q0 -17 -11 -28t-28 -11h-12q-17 0 -28 11t-11 28z" />
<glyph unicode="&#xd0;" horiz-adv-x="1255" d="M-20 788v21q0 33 38 33h146v635q0 27 35 39q101 16 336 16q598 0 598 -645v-254q0 -172 -43.5 -298t-125 -201t-188 -110.5t-241.5 -35.5q-235 0 -336 16q-35 12 -35 39v711h-146q-38 0 -38 34zM254 76q120 -8 281 -8q507 0 507 565v254q0 128 -25.5 226t-70 161.5 t-109.5 104t-138.5 57t-163.5 16.5q-101 0 -281 -12v-598h174q39 0 39 -33v-21q0 -34 -39 -34h-174v-678z" />
<glyph unicode="&#xd1;" horiz-adv-x="1333" d="M164 39v1393q0 47 27.5 73.5t72.5 26.5q40 0 61.5 -16t36.5 -48l689 -1380q6 -14 16 -14t10 18v1391q0 39 33 39h25q34 0 34 -39v-1391q0 -48 -26 -76t-66 -28q-51 0 -69 14q-21 18 -37 47l-690 1383q-8 14 -17 14q-10 0 -10 -14v-1393q0 -39 -35 -39h-20q-35 0 -35 39z M338 1659v53q0 92 43 139t119 47q79 0 135 -53l98 -96q57 -57 101 -57q40 0 60.5 23t20.5 85v53q0 18 4 25.5t17 7.5h35q22 0 22 -33v-53q0 -92 -42 -139t-117 -47q-82 0 -138 53l-98 96q-22 22 -32 31t-28.5 18t-37.5 9q-41 0 -62.5 -23.5t-21.5 -85.5v-53q0 -18 -4 -25.5 t-17 -7.5h-35q-22 0 -22 33z" />
<glyph unicode="&#xd2;" horiz-adv-x="1294" d="M123 633v254q0 167 38.5 292.5t109.5 202t165 113.5t211 37t211 -37t165 -113.5t109.5 -202t38.5 -292.5v-254q0 -167 -38.5 -292.5t-109.5 -202t-165 -113.5t-211 -37t-211 37t-165 113.5t-109.5 202t-38.5 292.5zM213 633q0 -123 21.5 -218.5t59.5 -159t93.5 -105 t119 -59t140.5 -17.5t140.5 17.5t119 59t93.5 105t59.5 159t21.5 218.5v254q0 123 -21.5 218.5t-59.5 159t-93.5 105t-119 59t-140.5 17.5t-140.5 -17.5t-119 -59t-93.5 -105t-59.5 -159t-21.5 -218.5v-254zM422 1939q0 15 22 15h54q16 0 24 -6t23 -25l205 -262q8 -8 8 -21 q0 -14 -19 -14h-45q-7 0 -11.5 1t-9.5 5t-7 6.5t-8 10.5l-9 12l-219 262q-8 8 -8 16z" />
<glyph unicode="&#xd3;" horiz-adv-x="1294" d="M123 633v254q0 167 38.5 292.5t109.5 202t165 113.5t211 37t211 -37t165 -113.5t109.5 -202t38.5 -292.5v-254q0 -167 -38.5 -292.5t-109.5 -202t-165 -113.5t-211 -37t-211 37t-165 113.5t-109.5 202t-38.5 292.5zM213 633q0 -123 21.5 -218.5t59.5 -159t93.5 -105 t119 -59t140.5 -17.5t140.5 17.5t119 59t93.5 105t59.5 159t21.5 218.5v254q0 123 -21.5 218.5t-59.5 159t-93.5 105t-119 59t-140.5 17.5t-140.5 -17.5t-119 -59t-93.5 -105t-59.5 -159t-21.5 -218.5v-254zM518 1640q0 13 8 21l205 262q15 19 23 25t24 6h53q23 0 23 -15 q0 -8 -8 -16l-219 -262l-9 -12t-8 -10.5t-7 -6.5t-9.5 -5t-11.5 -1h-45q-19 0 -19 14z" />
<glyph unicode="&#xd4;" horiz-adv-x="1294" d="M123 633v254q0 167 38.5 292.5t109.5 202t165 113.5t211 37t211 -37t165 -113.5t109.5 -202t38.5 -292.5v-254q0 -167 -38.5 -292.5t-109.5 -202t-165 -113.5t-211 -37t-211 37t-165 113.5t-109.5 202t-38.5 292.5zM213 633q0 -123 21.5 -218.5t59.5 -159t93.5 -105 t119 -59t140.5 -17.5t140.5 17.5t119 59t93.5 105t59.5 159t21.5 218.5v254q0 123 -21.5 218.5t-59.5 159t-93.5 105t-119 59t-140.5 17.5t-140.5 -17.5t-119 -59t-93.5 -105t-59.5 -159t-21.5 -218.5v-254zM346 1640q0 13 8 21l205 262q15 19 23 25t24 6h82q16 0 24 -6 t23 -25l205 -262q8 -8 8 -21q0 -14 -18 -14h-45q-7 0 -11.5 1t-9.5 5t-7 6.5t-8 10.5l-9 12l-193 231l-192 -231l-9 -12t-8 -10.5t-7 -6.5t-9.5 -5t-11.5 -1h-45q-19 0 -19 14z" />
<glyph unicode="&#xd5;" horiz-adv-x="1294" d="M123 633v254q0 167 38.5 292.5t109.5 202t165 113.5t211 37t211 -37t165 -113.5t109.5 -202t38.5 -292.5v-254q0 -167 -38.5 -292.5t-109.5 -202t-165 -113.5t-211 -37t-211 37t-165 113.5t-109.5 202t-38.5 292.5zM213 633q0 -123 21.5 -218.5t59.5 -159t93.5 -105 t119 -59t140.5 -17.5t140.5 17.5t119 59t93.5 105t59.5 159t21.5 218.5v254q0 123 -21.5 218.5t-59.5 159t-93.5 105t-119 59t-140.5 17.5t-140.5 -17.5t-119 -59t-93.5 -105t-59.5 -159t-21.5 -218.5v-254zM319 1659v53q0 92 43 139t119 47q79 0 135 -53l99 -96 q57 -57 100 -57q41 0 61.5 23t20.5 85v53q0 18 4 25.5t17 7.5h34q23 0 23 -33v-53q0 -92 -42.5 -139t-117.5 -47q-81 0 -137 53l-98 96q-21 21 -32 30.5t-29.5 18.5t-37.5 9q-41 0 -62.5 -23.5t-21.5 -85.5v-53q0 -19 -3.5 -26t-16.5 -7h-35q-23 0 -23 33z" />
<glyph unicode="&#xd6;" horiz-adv-x="1294" d="M123 633v254q0 167 38.5 292.5t109.5 202t165 113.5t211 37t211 -37t165 -113.5t109.5 -202t38.5 -292.5v-254q0 -167 -38.5 -292.5t-109.5 -202t-165 -113.5t-211 -37t-211 37t-165 113.5t-109.5 202t-38.5 292.5zM213 633q0 -123 21.5 -218.5t59.5 -159t93.5 -105 t119 -59t140.5 -17.5t140.5 17.5t119 59t93.5 105t59.5 159t21.5 218.5v254q0 123 -21.5 218.5t-59.5 159t-93.5 105t-119 59t-140.5 17.5t-140.5 -17.5t-119 -59t-93.5 -105t-59.5 -159t-21.5 -218.5v-254zM449 1706v152q0 17 10.5 27.5t27.5 10.5h13q17 0 28 -10.5 t11 -27.5v-152q0 -17 -11 -28t-28 -11h-13q-17 0 -27.5 11t-10.5 28zM756 1706v152q0 17 11 27.5t28 10.5h12q17 0 28 -10.5t11 -27.5v-152q0 -17 -11 -28t-28 -11h-12q-17 0 -28 11t-11 28z" />
<glyph unicode="&#xd7;" d="M225 479q0 14 17 31l290 291l-290 291q-17 17 -17 30q0 10 11 21l14 14q10 10 22 10q15 0 31 -16l291 -291l291 293q16 16 30 16q13 0 23 -10l14 -14q11 -11 11 -23q0 -13 -17 -30l-293 -291l293 -293q17 -17 17 -31q0 -11 -11 -22l-14 -15q-10 -10 -23 -10q-14 0 -30 16 l-291 293l-291 -290q-17 -17 -31 -17q-12 0 -22 10l-14 15q-11 11 -11 22z" />
<glyph unicode="&#xd8;" horiz-adv-x="1294" d="M74 10q0 8 6 17l135 188q-92 156 -92 418v254q0 167 38.5 292.5t109.5 202t165 113.5t211 37q253 0 391 -168l86 119q1 1 6 7t7 8l7 7t8 7l7.5 5t9 4t9.5 1h20q23 0 23 -23q0 -5 -7 -16l-133 -185q90 -158 90 -411v-254q0 -167 -38.5 -292.5t-109.5 -202t-165 -113.5 t-211 -37q-250 0 -387 164l-90 -125q-1 -2 -7 -8.5t-8 -9t-7.5 -7.5t-9.5 -7.5t-9.5 -4.5t-11.5 -2h-21q-22 0 -22 22zM213 633q0 -209 59 -336l713 991q-110 158 -338 158q-77 0 -140.5 -17.5t-119 -59t-93.5 -105t-59.5 -159t-21.5 -218.5v-254zM313 227 q112 -153 334 -153q77 0 140.5 17.5t119 59t93.5 105t59.5 159t21.5 218.5v254q0 210 -57 330z" />
<glyph unicode="&#xd9;" horiz-adv-x="1296" d="M164 541v942q0 39 35 39h20q35 0 35 -39v-942q0 -231 93 -350t302 -119q208 0 300.5 118.5t92.5 350.5v942q0 39 35 39h21q35 0 35 -39v-942q0 -266 -119.5 -409.5t-364.5 -143.5t-365 143.5t-120 409.5zM418 1939q0 15 22 15h54q16 0 24 -6t23 -25l204 -262q9 -9 9 -21 q0 -14 -19 -14h-45q-7 0 -11.5 1t-9.5 5t-7 6.5t-8 10.5l-9 12l-219 262q-8 8 -8 16z" />
<glyph unicode="&#xda;" horiz-adv-x="1296" d="M164 541v942q0 39 35 39h20q35 0 35 -39v-942q0 -231 93 -350t302 -119q208 0 300.5 118.5t92.5 350.5v942q0 39 35 39h21q35 0 35 -39v-942q0 -266 -119.5 -409.5t-364.5 -143.5t-365 143.5t-120 409.5zM541 1640q0 13 8 21l205 262q15 19 23 25t24 6h53q23 0 23 -15 q0 -7 -9 -16l-219 -262l-9 -12t-8 -10.5t-7 -6.5t-9.5 -5t-11.5 -1h-45q-18 0 -18 14z" />
<glyph unicode="&#xdb;" horiz-adv-x="1296" d="M164 541v942q0 39 35 39h20q35 0 35 -39v-942q0 -231 93 -350t302 -119q208 0 300.5 118.5t92.5 350.5v942q0 39 35 39h21q35 0 35 -39v-942q0 -266 -119.5 -409.5t-364.5 -143.5t-365 143.5t-120 409.5zM346 1640q0 13 8 21l205 262q15 19 23 25t24 6h82q16 0 24 -6 t23 -25l205 -262q8 -8 8 -21q0 -14 -18 -14h-45q-7 0 -11.5 1t-9.5 5t-7 6.5t-8 10.5l-9 12l-193 231l-192 -231l-9 -12t-8 -10.5t-7 -6.5t-9.5 -5t-11.5 -1h-45q-19 0 -19 14z" />
<glyph unicode="&#xdc;" horiz-adv-x="1296" d="M164 541v942q0 39 35 39h20q35 0 35 -39v-942q0 -231 93 -350t302 -119q208 0 300.5 118.5t92.5 350.5v942q0 39 35 39h21q35 0 35 -39v-942q0 -266 -119.5 -409.5t-364.5 -143.5t-365 143.5t-120 409.5zM449 1706v152q0 17 10.5 27.5t27.5 10.5h13q17 0 28 -10.5 t11 -27.5v-152q0 -17 -11 -28t-28 -11h-13q-17 0 -27.5 11t-10.5 28zM756 1706v152q0 17 11 27.5t28 10.5h12q17 0 28 -10.5t11 -27.5v-152q0 -17 -11 -28t-28 -11h-12q-17 0 -28 11t-11 28z" />
<glyph unicode="&#xdd;" horiz-adv-x="1128" d="M98 1466q-23 56 29 56h20q22 0 33 -25l322 -717q21 -45 32 -58t29 -13q19 0 30.5 13.5t31.5 57.5l321 717q11 25 33 25h20q52 0 29 -56l-323 -714q-44 -95 -97 -119v-594q0 -39 -35 -39h-20q-35 0 -35 39v594q-52 23 -96 119zM465 1640q0 13 8 21l205 262q15 19 23 25 t24 6h53q23 0 23 -15q0 -8 -8 -16l-220 -262l-9 -12t-8 -10.5t-7 -6.5t-9.5 -5t-11.5 -1h-45q-18 0 -18 14z" />
<glyph unicode="&#xde;" horiz-adv-x="1105" d="M164 39v1444q0 39 35 39h20q35 0 35 -39v-154q72 6 223 6q557 0 557 -415v-35q0 -231 -142 -335t-415 -104q-137 0 -223 9v-416q0 -39 -35 -39h-20q-35 0 -35 39zM254 535q94 -9 223 -9q242 0 354.5 83.5t112.5 275.5v35q0 184 -114 259.5t-353 75.5q-164 0 -223 -6v-714 z" />
<glyph unicode="&#xdf;" horiz-adv-x="1112" d="M154 41v1010q0 238 111.5 359.5t297.5 121.5q180 0 290 -98t110 -279v-14q0 -120 -70.5 -209.5t-171.5 -130.5q125 -36 201.5 -130.5t76.5 -226.5v-16q0 -94 -25.5 -169t-69 -125t-105 -83.5t-130 -48t-147.5 -14.5q-14 0 -38.5 2.5t-43.5 3.5q-18 0 -29.5 10t-11.5 27 v16q0 25 35 25h6q22 -1 45 -2.5t37 -1.5q191 0 289 87t98 273v16q0 136 -100 225t-274 89h-84q-41 0 -41 33v18q0 33 41 33h84q86 0 152.5 24.5t106 67.5t59 95t19.5 112v14q0 297 -309 297q-68 0 -123 -20t-100.5 -64.5t-70.5 -124.5t-25 -190v-1012q0 -18 -9 -29.5 t-26 -11.5h-25q-30 0 -30 41z" />
<glyph unicode="&#xe0;" horiz-adv-x="999" d="M102 317v27q0 108 48.5 176t160.5 103.5t297 35.5h158v74q0 163 -55.5 230t-202.5 67q-115 0 -291 -18q-47 -4 -47 30v13q0 19 10 25.5t37 11.5q155 18 291 18q101 0 170.5 -27t107.5 -79.5t54 -117.5t16 -153v-692q0 -17 -12 -29t-29 -12h-10q-17 0 -29 12t-12 29v51 q-189 -104 -348 -104q-49 0 -92 9.5t-84.5 33t-71.5 60t-48 94.5t-18 132zM193 317q0 -249 223 -249q86 0 166.5 24t183.5 80v408h-158q-231 0 -323 -52.5t-92 -183.5v-27zM262 1579q0 14 23 14h53q16 0 24 -5.5t23 -24.5l205 -263q8 -8 8 -20q0 -14 -18 -14h-45 q-5 0 -9 0.5t-7.5 2.5t-5.5 3t-5.5 5t-5 6t-6.5 8t-7 9l-219 263q-8 8 -8 16z" />
<glyph unicode="&#xe1;" horiz-adv-x="999" d="M102 317v27q0 108 48.5 176t160.5 103.5t297 35.5h158v74q0 163 -55.5 230t-202.5 67q-115 0 -291 -18q-47 -4 -47 30v13q0 19 10 25.5t37 11.5q155 18 291 18q101 0 170.5 -27t107.5 -79.5t54 -117.5t16 -153v-692q0 -17 -12 -29t-29 -12h-10q-17 0 -29 12t-12 29v51 q-189 -104 -348 -104q-49 0 -92 9.5t-84.5 33t-71.5 60t-48 94.5t-18 132zM193 317q0 -249 223 -249q86 0 166.5 24t183.5 80v408h-158q-231 0 -323 -52.5t-92 -183.5v-27zM406 1280q0 12 8 20l204 263q14 18 23 24t25 6h53q22 0 22 -14q0 -8 -8 -16l-219 -263 q-3 -4 -8 -10.5t-7 -8.5t-5.5 -6t-6.5 -5.5t-7.5 -2.5t-10.5 -1h-45q-18 0 -18 14z" />
<glyph unicode="&#xe2;" horiz-adv-x="999" d="M102 317v27q0 108 48.5 176t160.5 103.5t297 35.5h158v74q0 163 -55.5 230t-202.5 67q-115 0 -291 -18q-47 -4 -47 30v13q0 19 10 25.5t37 11.5q155 18 291 18q101 0 170.5 -27t107.5 -79.5t54 -117.5t16 -153v-692q0 -17 -12 -29t-29 -12h-10q-17 0 -29 12t-12 29v51 q-189 -104 -348 -104q-49 0 -92 9.5t-84.5 33t-71.5 60t-48 94.5t-18 132zM193 317q0 -249 223 -249q86 0 166.5 24t183.5 80v408h-158q-231 0 -323 -52.5t-92 -183.5v-27zM199 1280q0 12 8 20l205 263q15 19 23 24.5t24 5.5h82q16 0 24 -5.5t23 -24.5l205 -263q8 -8 8 -20 q0 -14 -19 -14h-45q-6 0 -10.5 1t-7.5 2.5t-6.5 5.5t-5.5 6t-7 8.5t-8 10.5l-192 232l-193 -232q-3 -4 -8 -10.5t-7 -8.5t-5.5 -6t-6.5 -5.5t-7.5 -2.5t-10.5 -1h-45q-18 0 -18 14z" />
<glyph unicode="&#xe3;" horiz-adv-x="999" d="M102 317v27q0 108 48.5 176t160.5 103.5t297 35.5h158v74q0 163 -55.5 230t-202.5 67q-115 0 -291 -18q-47 -4 -47 30v13q0 19 10 25.5t37 11.5q155 18 291 18q101 0 170.5 -27t107.5 -79.5t54 -117.5t16 -153v-692q0 -17 -12 -29t-29 -12h-10q-17 0 -29 12t-12 29v51 q-189 -104 -348 -104q-49 0 -92 9.5t-84.5 33t-71.5 60t-48 94.5t-18 132zM172 1331v53q0 92 43.5 139.5t118.5 47.5q79 0 135 -53l98 -97q57 -57 101 -57q40 0 61 23.5t21 85.5v53q0 19 3.5 26t16.5 7h35q22 0 22 -33v-53q0 -92 -42 -139.5t-117 -47.5q-82 0 -138 53 l-98 97q-21 21 -32 30.5t-29 18t-37 8.5q-41 0 -62.5 -23.5t-21.5 -85.5v-53q0 -18 -4 -25.5t-17 -7.5h-34q-23 0 -23 33zM193 317q0 -249 223 -249q86 0 166.5 24t183.5 80v408h-158q-231 0 -323 -52.5t-92 -183.5v-27z" />
<glyph unicode="&#xe4;" horiz-adv-x="999" d="M102 317v27q0 108 48.5 176t160.5 103.5t297 35.5h158v74q0 163 -55.5 230t-202.5 67q-115 0 -291 -18q-47 -4 -47 30v13q0 19 10 25.5t37 11.5q155 18 291 18q101 0 170.5 -27t107.5 -79.5t54 -117.5t16 -153v-692q0 -17 -12 -29t-29 -12h-10q-17 0 -29 12t-12 29v51 q-189 -104 -348 -104q-49 0 -92 9.5t-84.5 33t-71.5 60t-48 94.5t-18 132zM193 317q0 -249 223 -249q86 0 166.5 24t183.5 80v408h-158q-231 0 -323 -52.5t-92 -183.5v-27zM301 1354v151q0 17 11 28t28 11h12q17 0 28 -11t11 -28v-151q0 -17 -11 -28t-28 -11h-12 q-17 0 -28 11t-11 28zM608 1354v151q0 17 11 28t28 11h12q17 0 28 -11t11 -28v-151q0 -17 -11 -28t-28 -11h-12q-17 0 -28 11t-11 28z" />
<glyph unicode="&#xe5;" horiz-adv-x="999" d="M102 317v27q0 108 48.5 176t160.5 103.5t297 35.5h158v74q0 163 -55.5 230t-202.5 67q-115 0 -291 -18q-47 -4 -47 30v13q0 19 10 25.5t37 11.5q155 18 291 18q101 0 170.5 -27t107.5 -79.5t54 -117.5t16 -153v-692q0 -17 -12 -29t-29 -12h-10q-17 0 -29 12t-12 29v51 q-189 -104 -348 -104q-49 0 -92 9.5t-84.5 33t-71.5 60t-48 94.5t-18 132zM193 317q0 -249 223 -249q86 0 166.5 24t183.5 80v408h-158q-231 0 -323 -52.5t-92 -183.5v-27zM309 1430q0 78 56.5 134t134.5 56t134 -56t56 -134t-56 -134.5t-134 -56.5t-134.5 56.5t-56.5 134.5 zM383 1430q0 -50 34 -84.5t83 -34.5t83.5 34.5t34.5 84.5t-34 84t-84 34q-49 0 -83 -34t-34 -84z" />
<glyph unicode="&#xe6;" horiz-adv-x="1699" d="M102 317v27q0 108 48.5 176t160.5 103.5t297 35.5h158v74q0 163 -55.5 230t-202.5 67q-118 0 -291 -18h-8q-39 0 -39 30v13q0 31 47 37q155 18 291 18q141 0 216.5 -50.5t106.5 -148.5q111 199 349 199q206 0 306.5 -129.5t100.5 -357.5v-56q0 -17 -11 -28t-28 -11h-692 v-110q0 -132 21.5 -188.5t66.5 -90.5q96 -71 283 -71q155 0 303 34q3 0 6 1t6 1q31 0 31 -28v-15q0 -17 -8 -25.5t-31 -12.5q-149 -35 -307 -35q-322 0 -420 184q-25 -33 -43 -53t-53 -48t-72 -44t-95 -27.5t-128 -11.5q-49 0 -92 9.5t-84.5 33t-71.5 60t-48 94.5t-18 132z M193 317q0 -249 223 -249q183 0 266.5 81t83.5 269v160h-158q-231 0 -323 -52.5t-92 -181.5v-27zM856 610h641v13q0 202 -74.5 304.5t-242.5 102.5q-164 0 -244 -108t-80 -299v-13z" />
<glyph unicode="&#xe7;" horiz-adv-x="894" d="M113 483v138q0 105 22.5 191.5t69.5 154.5t126.5 105.5t186.5 37.5q90 0 248 -18q23 -4 31 -12t8 -25v-15q0 -17 -12 -25t-31 -3q-144 18 -244 18q-169 0 -242 -105.5t-73 -303.5v-138q0 -199 73.5 -307t241.5 -108q100 0 244 18q19 5 31 -3.5t12 -25.5v-14q0 -17 -8 -25 t-31 -12q-158 -18 -248 -18q-106 0 -186 39t-127 108.5t-69.5 156.5t-22.5 191zM295 -385q0 12 8 20l172 222q15 19 23 24.5t24 5.5h53q23 0 23 -14q0 -8 -8 -16l-187 -222q-3 -4 -8 -10.5t-7 -8.5t-5.5 -6t-6.5 -5.5t-7.5 -2.5t-10.5 -1h-45q-18 0 -18 14z" />
<glyph unicode="&#xe8;" horiz-adv-x="1046" d="M113 485v136q0 219 108 354t305 135q206 0 307 -129.5t101 -357.5v-56q0 -17 -11 -28t-28 -11h-692v-43q0 -125 28 -210t81.5 -129t115 -61t145.5 -17q156 0 304 34q43 11 43 -26v-15q0 -17 -8 -25.5t-31 -12.5q-149 -35 -308 -35q-80 0 -146 14t-125.5 49.5t-100 91 t-64.5 142.5t-24 200zM203 610h641v13q0 202 -75 304.5t-243 102.5q-164 0 -243.5 -109t-79.5 -300v-11zM283 1579q0 14 22 14h53q16 0 25 -6t23 -24l204 -263q8 -8 8 -20q0 -14 -18 -14h-45q-6 0 -10.5 1t-7.5 2.5t-6.5 5.5t-5.5 6t-7 8.5t-8 10.5l-219 263q-8 8 -8 16z " />
<glyph unicode="&#xe9;" horiz-adv-x="1046" d="M113 485v136q0 219 108 354t305 135q206 0 307 -129.5t101 -357.5v-56q0 -17 -11 -28t-28 -11h-692v-43q0 -125 28 -210t81.5 -129t115 -61t145.5 -17q156 0 304 34q43 11 43 -26v-15q0 -17 -8 -25.5t-31 -12.5q-149 -35 -308 -35q-80 0 -146 14t-125.5 49.5t-100 91 t-64.5 142.5t-24 200zM203 610h641v13q0 202 -75 304.5t-243 102.5q-164 0 -243.5 -109t-79.5 -300v-11zM428 1280q0 12 8 20l205 263q15 19 23 24.5t24 5.5h53q23 0 23 -14q0 -8 -8 -16l-219 -263q-3 -4 -8 -10.5t-7 -8.5t-5.5 -6t-6.5 -5.5t-7.5 -2.5t-10.5 -1h-46 q-18 0 -18 14z" />
<glyph unicode="&#xea;" horiz-adv-x="1046" d="M113 485v136q0 219 108 354t305 135q206 0 307 -129.5t101 -357.5v-56q0 -17 -11 -28t-28 -11h-692v-43q0 -125 28 -210t81.5 -129t115 -61t145.5 -17q156 0 304 34q43 11 43 -26v-15q0 -17 -8 -25.5t-31 -12.5q-149 -35 -308 -35q-80 0 -146 14t-125.5 49.5t-100 91 t-64.5 142.5t-24 200zM203 610h641v13q0 202 -75 304.5t-243 102.5q-164 0 -243.5 -109t-79.5 -300v-11zM221 1280q0 12 8 20l205 263q15 19 23 24.5t24 5.5h82q16 0 24 -5.5t23 -24.5l205 -263q8 -8 8 -20q0 -14 -18 -14h-45q-6 0 -10.5 1t-7.5 2.5t-6.5 5.5t-5.5 6t-7 8.5 t-8 10.5l-193 232l-192 -232q-3 -4 -8 -10.5t-7 -8.5t-5.5 -6t-6.5 -5.5t-7.5 -2.5t-10.5 -1h-45q-19 0 -19 14z" />
<glyph unicode="&#xeb;" horiz-adv-x="1046" d="M113 485v136q0 219 108 354t305 135q206 0 307 -129.5t101 -357.5v-56q0 -17 -11 -28t-28 -11h-692v-43q0 -125 28 -210t81.5 -129t115 -61t145.5 -17q156 0 304 34q43 11 43 -26v-15q0 -17 -8 -25.5t-31 -12.5q-149 -35 -308 -35q-80 0 -146 14t-125.5 49.5t-100 91 t-64.5 142.5t-24 200zM203 610h641v13q0 202 -75 304.5t-243 102.5q-164 0 -243.5 -109t-79.5 -300v-11zM324 1354v151q0 17 10.5 28t27.5 11h13q17 0 28 -11t11 -28v-151q0 -17 -11 -28t-28 -11h-13q-17 0 -27.5 11t-10.5 28zM631 1354v151q0 17 11 28t28 11h12 q17 0 28 -11t11 -28v-151q0 -17 -11 -28t-28 -11h-12q-17 0 -28 11t-11 28z" />
<glyph unicode="&#xec;" horiz-adv-x="417" d="M-6 1579q0 14 22 14h54q16 0 24 -5.5t23 -24.5l205 -263q8 -8 8 -20q0 -14 -19 -14h-45q-6 0 -10.5 1t-7.5 2.5t-6.5 5.5t-5.5 6t-7 8.5t-8 10.5l-219 263q-8 8 -8 16zM164 39v1022q0 17 11 28t28 11h12q17 0 28 -11t11 -28v-1022q0 -17 -11 -28t-28 -11h-12 q-17 0 -28 11t-11 28z" />
<glyph unicode="&#xed;" horiz-adv-x="417" d="M88 1280q0 12 8 20l205 263q15 19 23 24.5t24 5.5h53q23 0 23 -14q0 -8 -8 -16l-219 -263q-3 -4 -8 -10.5t-7 -8.5t-5.5 -6t-6.5 -5.5t-7.5 -2.5t-10.5 -1h-46q-18 0 -18 14zM164 39v1022q0 17 11 28t28 11h12q17 0 28 -11t11 -28v-1022q0 -17 -11 -28t-28 -11h-12 q-17 0 -28 11t-11 28z" />
<glyph unicode="&#xee;" horiz-adv-x="417" d="M-92 1280q0 12 8 20l205 263q15 19 23 24.5t24 5.5h82q16 0 24 -5.5t23 -24.5l205 -263q8 -8 8 -20q0 -14 -18 -14h-46q-6 0 -10.5 1t-7.5 2.5t-6.5 5.5t-5.5 6t-7 8.5t-8 10.5l-192 232l-193 -232q-3 -4 -8 -10.5t-7 -8.5t-5.5 -6t-6.5 -5.5t-7.5 -2.5t-10.5 -1h-45 q-18 0 -18 14zM164 39v1022q0 17 11 28t28 11h12q17 0 28 -11t11 -28v-1022q0 -17 -11 -28t-28 -11h-12q-17 0 -28 11t-11 28z" />
<glyph unicode="&#xef;" horiz-adv-x="417" d="M10 1354v151q0 17 11 28t28 11h12q17 0 28 -11t11 -28v-151q0 -17 -11 -28t-28 -11h-12q-17 0 -28 11t-11 28zM164 39v1022q0 17 11 28t28 11h12q17 0 28 -11t11 -28v-1022q0 -17 -11 -28t-28 -11h-12q-17 0 -28 11t-11 28zM317 1354v151q0 17 11 28t28 11h13 q17 0 28 -11t11 -28v-151q0 -17 -11 -28t-28 -11h-13q-17 0 -28 11t-11 28z" />
<glyph unicode="&#xf0;" horiz-adv-x="1069" d="M113 477v144q0 236 107 362.5t315 126.5q200 0 307 -119q-31 117 -111.5 207.5t-230.5 155.5l-199 -150q-11 -8 -17.5 -11.5t-15 -1.5t-16.5 13l-10 13q-18 21 14 49l158 123q-110 37 -219 59q-41 11 -31 41l6 20q6 19 17 23t28 -2q178 -41 279 -82l208 160q28 22 52 -2 l12 -13q22 -22 -12 -45l-179 -135q80 -40 141.5 -90t101.5 -95.5t67.5 -109.5t41.5 -109t21 -118.5t7.5 -114t0.5 -117.5v-38v-144q0 -236 -106.5 -362.5t-314.5 -126.5t-315 126.5t-107 362.5zM203 477q0 -409 332 -409q331 0 331 409v144q0 409 -331 409q-332 0 -332 -409 v-144z" />
<glyph unicode="&#xf1;" horiz-adv-x="1067" d="M143 39v1020q0 18 10 29.5t27 11.5h17q17 0 26.5 -11.5t9.5 -29.5v-33q175 84 330 84q77 0 140 -21.5t114 -66.5t79 -122t28 -181v-680q0 -17 -11 -28t-28 -11h-15q-17 0 -26.5 10.5t-9.5 28.5v680q0 311 -277 311q-146 0 -324 -84v-907q0 -17 -10.5 -28t-27.5 -11h-13 q-17 0 -28 11t-11 28zM205 1300v54q0 92 43 139t119 47q79 0 135 -53l98 -96q58 -58 100 -58q40 0 61 23.5t21 85.5v53q0 18 4 25.5t17 7.5h35q22 0 22 -33v-53q0 -92 -42.5 -139.5t-117.5 -47.5q-80 0 -137 54l-98 96q-21 21 -32 30.5t-29 18t-37 8.5q-41 0 -62.5 -23 t-21.5 -85v-54q0 -18 -4 -25t-17 -7h-35q-22 0 -22 32z" />
<glyph unicode="&#xf2;" horiz-adv-x="1069" d="M113 477v144q0 236 107 362.5t315 126.5t314.5 -126.5t106.5 -362.5v-144q0 -236 -106.5 -362.5t-314.5 -126.5t-315 126.5t-107 362.5zM203 477q0 -409 332 -409q331 0 331 409v144q0 409 -331 409q-332 0 -332 -409v-144zM322 1579q0 14 22 14h53q16 0 24 -5.5 t23 -24.5l205 -263q8 -8 8 -20q0 -14 -18 -14h-45q-6 0 -10.5 1t-7.5 2.5t-6.5 5.5t-5.5 6t-7 8.5t-8 10.5l-219 263q-8 8 -8 16z" />
<glyph unicode="&#xf3;" horiz-adv-x="1069" d="M113 477v144q0 236 107 362.5t315 126.5t314.5 -126.5t106.5 -362.5v-144q0 -236 -106.5 -362.5t-314.5 -126.5t-315 126.5t-107 362.5zM203 477q0 -409 332 -409q331 0 331 409v144q0 409 -331 409q-332 0 -332 -409v-144zM438 1280q0 12 8 20l205 263q15 19 23 24.5 t24 5.5h54q22 0 22 -14q0 -8 -8 -16l-219 -263q-3 -4 -8 -10.5t-7 -8.5t-5.5 -6t-6.5 -5.5t-7.5 -2.5t-10.5 -1h-45q-19 0 -19 14z" />
<glyph unicode="&#xf4;" horiz-adv-x="1069" d="M113 477v144q0 236 107 362.5t315 126.5t314.5 -126.5t106.5 -362.5v-144q0 -236 -106.5 -362.5t-314.5 -126.5t-315 126.5t-107 362.5zM203 477q0 -409 332 -409q331 0 331 409v144q0 409 -331 409q-332 0 -332 -409v-144zM233 1280q0 11 9 20l204 263q14 18 23 24t25 6 h81q16 0 25 -6t23 -24l204 -263q9 -9 9 -20q0 -14 -19 -14h-45q-6 0 -10.5 1t-7.5 2.5t-6.5 5.5t-5.5 6t-7 8.5t-8 10.5l-192 232l-193 -232q-3 -4 -8 -10.5t-7 -8.5t-5.5 -6t-6.5 -5.5t-7.5 -2.5t-10.5 -1h-45q-19 0 -19 14z" />
<glyph unicode="&#xf5;" horiz-adv-x="1069" d="M113 477v144q0 236 107 362.5t315 126.5t314.5 -126.5t106.5 -362.5v-144q0 -236 -106.5 -362.5t-314.5 -126.5t-315 126.5t-107 362.5zM203 477q0 -409 332 -409q331 0 331 409v144q0 409 -331 409q-332 0 -332 -409v-144zM207 1298v54q0 92 43 139t119 47q79 0 135 -53 l98 -96q58 -58 100 -58q40 0 61 23.5t21 85.5v53q0 18 4 25.5t17 7.5h35q22 0 22 -33v-53q0 -92 -42.5 -139.5t-117.5 -47.5q-80 0 -137 54l-98 96q-21 21 -32 30.5t-29 18t-37 8.5q-41 0 -62.5 -23t-21.5 -85v-54q0 -18 -4 -25t-17 -7h-35q-22 0 -22 32z" />
<glyph unicode="&#xf6;" horiz-adv-x="1069" d="M113 477v144q0 236 107 362.5t315 126.5t314.5 -126.5t106.5 -362.5v-144q0 -236 -106.5 -362.5t-314.5 -126.5t-315 126.5t-107 362.5zM203 477q0 -409 332 -409q331 0 331 409v144q0 409 -331 409q-332 0 -332 -409v-144zM336 1354v151q0 17 11 28t28 11h12 q17 0 28 -11t11 -28v-151q0 -17 -11 -28t-28 -11h-12q-17 0 -28 11t-11 28zM643 1354v151q0 17 11 28t28 11h12q17 0 28 -11t11 -28v-151q0 -17 -11 -28t-28 -11h-12q-17 0 -28 11t-11 28z" />
<glyph unicode="&#xf7;" d="M180 791v20q0 33 41 33h748q41 0 41 -33v-20q0 -33 -41 -33h-748q-41 0 -41 33zM549 403v152q0 17 11 28t28 11h12q17 0 28 -11t11 -28v-152q0 -17 -11 -27.5t-28 -10.5h-12q-17 0 -28 10.5t-11 27.5zM549 1047v151q0 17 11 28t28 11h12q17 0 28 -11t11 -28v-151 q0 -17 -11 -28t-28 -11h-12q-17 0 -28 11t-11 28z" />
<glyph unicode="&#xf8;" horiz-adv-x="1069" d="M51 -55q0 14 8 22l136 183q-82 125 -82 327v144q0 236 107 362.5t315 126.5q185 0 292 -104l101 137q10 13 16 16.5t17 3.5h40q17 0 17 -16q0 -15 -8 -23l-133 -178q79 -122 79 -325v-144q0 -236 -106.5 -362.5t-314.5 -126.5q-185 0 -291 100l-103 -139 q-11 -14 -16.5 -17.5t-15.5 -3.5h-41q-17 0 -17 17zM203 477q0 -158 47 -252l526 713q-83 92 -241 92q-332 0 -332 -409v-144zM295 158q87 -90 240 -90q331 0 331 409v144q0 156 -45 247z" />
<glyph unicode="&#xf9;" horiz-adv-x="1067" d="M143 381v680q0 17 11 28t28 11h15q17 0 26.5 -10.5t9.5 -28.5v-680q0 -311 277 -311q138 0 324 84v907q0 17 10.5 28t27.5 11h13q17 0 28 -11t11 -28v-1020q0 -18 -10 -29.5t-27 -11.5h-17q-17 0 -26.5 11.5t-9.5 29.5v33q-175 -84 -330 -84q-160 0 -260.5 95.5 t-100.5 295.5zM289 1579q0 14 22 14h54q16 0 24 -5.5t23 -24.5l204 -263q9 -9 9 -20q0 -14 -19 -14h-45q-6 0 -10.5 1t-7.5 2.5t-6.5 5.5t-5.5 6t-7 8.5t-8 10.5l-219 263q-8 8 -8 16z" />
<glyph unicode="&#xfa;" horiz-adv-x="1067" d="M143 381v680q0 17 11 28t28 11h15q17 0 26.5 -10.5t9.5 -28.5v-680q0 -311 277 -311q138 0 324 84v907q0 17 10.5 28t27.5 11h13q17 0 28 -11t11 -28v-1020q0 -18 -10 -29.5t-27 -11.5h-17q-17 0 -26.5 11.5t-9.5 29.5v33q-175 -84 -330 -84q-160 0 -260.5 95.5 t-100.5 295.5zM453 1280q0 12 8 20l205 263q15 19 23 24.5t24 5.5h53q22 0 22 -14q0 -8 -8 -16l-219 -263q-3 -4 -8 -10.5t-7 -8.5t-5.5 -6t-6.5 -5.5t-7.5 -2.5t-10.5 -1h-45q-18 0 -18 14z" />
<glyph unicode="&#xfb;" horiz-adv-x="1067" d="M143 381v680q0 17 11 28t28 11h15q17 0 26.5 -10.5t9.5 -28.5v-680q0 -311 277 -311q138 0 324 84v907q0 17 10.5 28t27.5 11h13q17 0 28 -11t11 -28v-1020q0 -18 -10 -29.5t-27 -11.5h-17q-17 0 -26.5 11.5t-9.5 29.5v33q-175 -84 -330 -84q-160 0 -260.5 95.5 t-100.5 295.5zM231 1280q0 11 9 20l204 263q14 18 23 24t25 6h81q16 0 25 -6t23 -24l204 -263q9 -9 9 -20q0 -14 -19 -14h-45q-6 0 -10.5 1t-7.5 2.5t-6.5 5.5t-5.5 6t-7 8.5t-8 10.5l-193 232l-192 -232q-3 -4 -8 -10.5t-7 -8.5t-5.5 -6t-6.5 -5.5t-7.5 -2.5t-10.5 -1h-45 q-19 0 -19 14z" />
<glyph unicode="&#xfc;" horiz-adv-x="1067" d="M143 381v680q0 17 11 28t28 11h15q17 0 26.5 -10.5t9.5 -28.5v-680q0 -311 277 -311q138 0 324 84v907q0 17 10.5 28t27.5 11h13q17 0 28 -11t11 -28v-1020q0 -18 -10 -29.5t-27 -11.5h-17q-17 0 -26.5 11.5t-9.5 29.5v33q-175 -84 -330 -84q-160 0 -260.5 95.5 t-100.5 295.5zM334 1354v151q0 17 11 28t28 11h12q17 0 28 -11t11 -28v-151q0 -17 -11 -28t-28 -11h-12q-17 0 -28 11t-11 28zM641 1354v151q0 17 11 28t28 11h12q17 0 28 -11t11 -28v-151q0 -17 -11 -28t-28 -11h-12q-17 0 -28 11t-11 28z" />
<glyph unicode="&#xfd;" horiz-adv-x="995" d="M78 -336q0 19 9.5 26t33.5 3q62 -12 133 -12q110 0 158.5 44.5t85.5 178.5l26 96h-28q-50 0 -76.5 22.5t-48.5 92.5l-277 936q-6 22 1.5 35.5t31.5 13.5h18q11 0 18 -5.5t8.5 -8.5t6.5 -15l277 -942q9 -29 20 -37t27 -8h47l280 989q4 10 6.5 14t10 8.5t20.5 4.5h19 q43 0 28 -51l-335 -1164q-49 -165 -119 -224.5t-213 -59.5q-49 0 -127 12q-3 1 -10 2.5t-9.5 2t-7 2t-6.5 3.5t-4 4.5t-3 6t-1 8.5v22zM420 1280q0 12 8 20l205 263q15 19 23 24.5t24 5.5h53q23 0 23 -14q0 -8 -8 -16l-220 -263q-3 -4 -8 -10.5t-7 -8.5t-5.5 -6t-6.5 -5.5 t-7.5 -2.5t-10.5 -1h-45q-18 0 -18 14z" />
<glyph unicode="&#xfe;" horiz-adv-x="1032" d="M143 -360v1843q0 39 35 39h21q34 0 34 -39v-400q170 27 285 27q205 0 303.5 -133t98.5 -365v-135q0 -489 -402 -489q-131 0 -285 30v-378q0 -39 -34 -39h-21q-35 0 -35 39zM233 94q127 -26 285 -26q166 0 238.5 100t72.5 309v135q0 207 -72.5 312.5t-238.5 105.5 q-148 0 -285 -26v-910z" />
<glyph unicode="&#xff;" horiz-adv-x="995" d="M78 -336q0 19 9.5 26t33.5 3q62 -12 133 -12q110 0 158.5 44.5t85.5 178.5l26 96h-28q-50 0 -76.5 22.5t-48.5 92.5l-277 936q-6 22 1.5 35.5t31.5 13.5h18q11 0 18 -5.5t8.5 -8.5t6.5 -15l277 -942q9 -29 20 -37t27 -8h47l280 989q4 10 6.5 14t10 8.5t20.5 4.5h19 q43 0 28 -51l-335 -1164q-49 -165 -119 -224.5t-213 -59.5q-49 0 -127 12q-3 1 -10 2.5t-9.5 2t-7 2t-6.5 3.5t-4 4.5t-3 6t-1 8.5v22zM299 1368v152q0 17 11 28t28 11h12q17 0 28 -11t11 -28v-152q0 -17 -11 -28t-28 -11h-12q-17 0 -28 11t-11 28zM606 1368v152q0 17 11 28 t28 11h12q17 0 28 -11t11 -28v-152q0 -17 -11 -28t-28 -11h-12q-17 0 -28 11t-11 28z" />
<glyph unicode="&#x11e;" horiz-adv-x="1204" d="M123 633v254q0 148 31 263.5t81 186t119 116t137.5 62.5t145.5 17q184 0 369 -21q34 -4 34 -32v-21q0 -37 -43 -31q-190 21 -360 21q-46 0 -88 -7.5t-85.5 -25.5t-79.5 -46t-68.5 -72.5t-54.5 -101.5t-35 -135.5t-13 -172.5v-254q0 -282 111.5 -420.5t312.5 -138.5 q212 0 311 18v651q0 39 35 39h21q34 0 34 -39v-690q0 -17 -10 -27t-24 -12q-20 -2 -73 -8t-85 -9t-90 -6t-119 -3q-112 0 -203.5 38t-162 114t-109.5 202t-39 291zM360 1933q0 21 21 21h45q16 0 16 -21q0 -65 18 -111t49.5 -70.5t66 -35t75.5 -10.5t75.5 10.5t66 35 t49.5 70.5t18 111q0 21 17 21h45q20 0 20 -21q0 -145 -79.5 -226t-211.5 -81t-211.5 81t-79.5 226z" />
<glyph unicode="&#x11f;" horiz-adv-x="1093" d="M113 -70q0 99 46.5 177t106.5 118l-14 4q-109 33 -109 138q0 39 22 75.5t64 55.5q-106 86 -106 243v17q0 51 9.5 96t38 91.5t73.5 79.5t122.5 54t178.5 21h418q38 0 38 -33v-23q0 -32 -38 -32h-107q113 -96 113 -254v-17q0 -76 -22 -135t-70 -104.5t-131.5 -69.5 t-200.5 -24q-135 0 -250 47q-70 -29 -70 -88q0 -46 60 -64l368 -96q180 -48 254 -104t74 -173v-18q0 -318 -434 -318q-225 0 -329.5 85t-104.5 233v18zM201 -70v-18q0 -118 79.5 -180t266.5 -62q100 0 168 15.5t106 48t54 75t16 103.5v18q0 85 -47.5 121t-210.5 78l-283 74 q-73 -48 -111 -111.5t-38 -161.5zM213 741q0 -35 7 -67t29 -67.5t57 -61.5t96.5 -43t142.5 -17q98 0 166 20t104 56.5t51 80t15 99.5v17q0 59 -15.5 104t-52 82.5t-104 57.5t-164.5 20q-82 0 -143 -15.5t-96.5 -39.5t-57 -60t-28.5 -71t-7 -78v-17zM256 1573q0 20 20 20h46 q16 0 16 -20q0 -65 18 -111t49.5 -70.5t66 -35t75.5 -10.5t75.5 10.5t66 35t49.5 70.5t18 111q0 20 16 20h45q21 0 21 -20q0 -145 -79.5 -226t-211.5 -81t-211.5 81t-79.5 226z" />
<glyph unicode="&#x130;" horiz-adv-x="458" d="M184 39v1444q0 39 35 39h21q34 0 34 -39v-1444q0 -39 -34 -39h-21q-35 0 -35 39zM184 1665v152q0 17 11 27.5t28 10.5h13q17 0 27.5 -10.5t10.5 -27.5v-152q0 -17 -10.5 -28t-27.5 -11h-13q-17 0 -28 11t-11 28z" />
<glyph unicode="&#x131;" horiz-adv-x="417" d="M164 39v1022q0 17 11 28t28 11h12q17 0 28 -11t11 -28v-1022q0 -17 -11 -28t-28 -11h-12q-17 0 -28 11t-11 28z" />
<glyph unicode="&#x152;" horiz-adv-x="2011" d="M123 530v459q0 169 70.5 294t188 187t265.5 62q138 0 251.5 -55t184.5 -160v37q0 89 39.5 128.5t130.5 39.5h607q38 0 38 -35v-17q0 -32 -38 -32h-607q-51 0 -65 -18.5t-14 -65.5v-512h686q38 0 38 -33v-21q0 -34 -38 -34h-686v-588q0 -46 14.5 -64t64.5 -18h607 q38 0 38 -33v-16q0 -35 -38 -35h-607q-90 0 -130 39.5t-40 126.5v39q-72 -105 -185.5 -161t-250.5 -56q-110 0 -205.5 36.5t-166.5 104t-111.5 171t-40.5 230.5zM213 530q0 -144 60 -249t157 -156t217 -51q118 0 213.5 48t156.5 148.5t66 239.5v6v14v459v15v6 q-5 139 -66 239.5t-156.5 148.5t-213.5 48q-120 0 -217 -51t-157 -156.5t-60 -249.5v-459z" />
<glyph unicode="&#x153;" horiz-adv-x="1822" d="M137 406v286q0 82 27 156t78 133t132.5 94t182.5 35q134 0 228 -55t143 -152q93 207 362 207q103 0 181 -31.5t124 -87.5t68.5 -126t22.5 -152v-146q0 -17 -11 -28t-28 -11h-670v-145q0 -168 90.5 -241.5t269.5 -73.5q119 0 291 20h8q35 0 35 -29v-12q0 -18 -8 -26.5 t-31 -12.5q-172 -20 -301 -20q-315 0 -407 202q-49 -94 -142 -148t-225 -54q-101 0 -182.5 35t-132.5 94t-78 133t-27 156zM225 406q0 -139 87 -238.5t245 -99.5t245 99.5t87 238.5v286q0 65 -21 124.5t-61 108t-104.5 77t-145.5 28.5t-145.5 -28.5t-104.5 -77t-61 -108 t-21 -124.5v-286zM977 610h618v103q0 63 -16 117t-50 100t-95.5 73t-143.5 27t-144 -27t-98 -73t-53.5 -100.5t-17.5 -116.5v-103z" />
<glyph unicode="&#x15e;" horiz-adv-x="1085" d="M113 1214q0 91 40 155.5t111 98.5t151 49t177 15q98 0 285 -19q32 -5 43.5 -12.5t11.5 -27.5v-11q0 -41 -64 -32l-112 8q-113 8 -166 8q-201 0 -293 -57.5t-92 -174.5q0 -53 16 -96t55 -82.5t84 -71.5t121 -79l131 -80q81 -50 131 -83.5t99 -75t74.5 -79.5t41 -85 t15.5 -103q0 -391 -475 -391q-173 0 -299 20q-32 5 -44 13t-12 30v8q0 39 47 35q126 -20 308 -20q112 0 189 23t118 66.5t57.5 95t16.5 120.5q0 37 -6.5 67t-24.5 58t-38.5 49.5t-60 50t-77 52.5t-99.5 63q-7 4 -10 6l-129 80q-66 41 -106 68.5t-86 67.5t-70.5 77 t-41.5 87.5t-17 108.5zM279 -385q0 12 8 20l172 222q15 19 23 24.5t24 5.5h53q23 0 23 -14q0 -7 -9 -16l-186 -222q-3 -4 -8 -10.5t-7 -8.5t-5.5 -6t-6.5 -5.5t-7.5 -2.5t-10.5 -1h-45q-18 0 -18 14z" />
<glyph unicode="&#x15f;" horiz-adv-x="901" d="M102 49v23q0 18 13 25.5t32 2.5q196 -32 302 -32q59 0 103 9t81 30.5t56.5 63t19.5 101.5q0 62 -45 108.5t-172 115.5l-132 71q-64 34 -104.5 61.5t-75.5 62t-51 75.5t-16 92q0 55 17 99t46 72t70 46.5t85 26.5t95 8q131 0 293 -18q43 -6 43 -35v-17q0 -36 -43 -32 q-202 22 -285 22q-54 0 -92 -6.5t-71.5 -24t-50.5 -53t-17 -88.5q0 -62 46 -107t152 -106l138 -76q141 -77 200.5 -139.5t59.5 -157.5q0 -284 -355 -284q-168 0 -297 28q-45 9 -45 33zM207 -385q0 12 8 20l172 222q15 19 23 24.5t24 5.5h53q23 0 23 -14q0 -8 -8 -16 l-187 -222q-3 -4 -8 -10.5t-7 -8.5t-5.5 -6t-6.5 -5.5t-7.5 -2.5t-10.5 -1h-45q-18 0 -18 14z" />
<glyph unicode="&#x178;" horiz-adv-x="1128" d="M98 1466q-23 56 29 56h20q22 0 33 -25l322 -717q21 -45 32 -58t29 -13q19 0 30.5 13.5t31.5 57.5l321 717q11 25 33 25h20q52 0 29 -56l-323 -714q-44 -95 -97 -119v-594q0 -39 -35 -39h-20q-35 0 -35 39v594q-52 23 -96 119zM365 1706v152q0 17 10.5 27.5t27.5 10.5h13 q17 0 28 -10.5t11 -27.5v-152q0 -17 -11 -28t-28 -11h-13q-17 0 -27.5 11t-10.5 28zM672 1706v152q0 17 11 27.5t28 10.5h12q17 0 28 -10.5t11 -27.5v-152q0 -17 -11 -28t-28 -11h-12q-17 0 -28 11t-11 28z" />
<glyph unicode="&#x2c6;" horiz-adv-x="675" d="M37 1280q0 12 8 20l205 263q15 19 23 24.5t24 5.5h82q16 0 24 -5.5t23 -24.5l205 -263q8 -8 8 -20q0 -14 -18 -14h-46q-6 0 -10.5 1t-7.5 2.5t-6.5 5.5t-5.5 6t-7 8.5t-8 10.5l-192 232l-193 -232q-3 -4 -8 -10.5t-7 -8.5t-5.5 -6t-6.5 -5.5t-7.5 -2.5t-10.5 -1h-45 q-18 0 -18 14z" />
<glyph unicode="&#x2da;" horiz-adv-x="675" d="M147 1430q0 78 56.5 134t134.5 56t134 -56t56 -134t-56 -134.5t-134 -56.5t-134.5 56.5t-56.5 134.5zM221 1430q0 -50 34 -84.5t83 -34.5q50 0 84.5 34.5t34.5 84.5q0 49 -34.5 83.5t-84.5 34.5q-49 0 -83 -34t-34 -84z" />
<glyph unicode="&#x2dc;" horiz-adv-x="1005" d="M162 1331v53q0 92 43.5 139.5t118.5 47.5q79 0 135 -53l98 -97q57 -57 100 -57q40 0 61 23.5t21 85.5v53q0 18 4 25.5t17 7.5h35q22 0 22 -33v-53q0 -92 -42.5 -139.5t-117.5 -47.5q-81 0 -137 53l-98 97q-21 21 -32 30.5t-29 18t-37 8.5q-41 0 -62.5 -23.5t-21.5 -85.5 v-53q0 -18 -4 -25.5t-17 -7.5h-35q-22 0 -22 33z" />
<glyph unicode="&#x2000;" horiz-adv-x="1003" />
<glyph unicode="&#x2001;" horiz-adv-x="2007" />
<glyph unicode="&#x2002;" horiz-adv-x="1003" />
<glyph unicode="&#x2003;" horiz-adv-x="2007" />
<glyph unicode="&#x2004;" horiz-adv-x="669" />
<glyph unicode="&#x2005;" horiz-adv-x="501" />
<glyph unicode="&#x2006;" horiz-adv-x="334" />
<glyph unicode="&#x2007;" horiz-adv-x="334" />
<glyph unicode="&#x2008;" horiz-adv-x="250" />
<glyph unicode="&#x2009;" horiz-adv-x="401" />
<glyph unicode="&#x200a;" horiz-adv-x="111" />
<glyph unicode="&#x2010;" horiz-adv-x="704" d="M106 559v16q0 17 11 27t28 10h414q17 0 28 -10t11 -27v-16q0 -33 -39 -33h-414q-39 0 -39 33z" />
<glyph unicode="&#x2011;" horiz-adv-x="704" d="M106 559v16q0 17 11 27t28 10h414q17 0 28 -10t11 -27v-16q0 -33 -39 -33h-414q-39 0 -39 33z" />
<glyph unicode="&#x2012;" horiz-adv-x="704" d="M106 559v16q0 17 11 27t28 10h414q17 0 28 -10t11 -27v-16q0 -33 -39 -33h-414q-39 0 -39 33z" />
<glyph unicode="&#x2013;" horiz-adv-x="737" d="M-31 559v16q0 17 11 27t28 10h721q17 0 28 -10t11 -27v-16q0 -33 -39 -33h-721q-39 0 -39 33z" />
<glyph unicode="&#x2014;" horiz-adv-x="1439" d="M-31 559v16q0 17 11 27t28 10h1424q17 0 27.5 -10t10.5 -27v-16q0 -33 -38 -33h-1424q-39 0 -39 33z" />
<glyph unicode="&#x2018;" horiz-adv-x="348" d="M80 1112q0 12 2 16l98 353q9 39 39 39h31q18 0 18 -21q0 -12 -2 -18l-84 -353q-8 -38 -41 -38h-39q-22 0 -22 22z" />
<glyph unicode="&#x2019;" horiz-adv-x="348" d="M80 1112q0 12 2 18l84 353q9 39 41 39h39q22 0 22 -23q0 -12 -2 -16l-98 -353q-8 -38 -39 -38h-31q-18 0 -18 20z" />
<glyph unicode="&#x201a;" horiz-adv-x="348" d="M80 -193q0 13 2 19l84 352q9 39 41 39h39q22 0 22 -22q0 -13 -2 -17l-98 -352q-9 -39 -39 -39h-31q-18 0 -18 20z" />
<glyph unicode="&#x201c;" horiz-adv-x="604" d="M80 1114q0 12 2 16l98 353q9 39 39 39h31q18 0 18 -21q0 -12 -2 -18l-84 -353q-8 -38 -41 -38h-39q-22 0 -22 22zM336 1114q0 12 2 16l98 353q9 39 39 39h31q18 0 18 -21q0 -12 -2 -18l-84 -353q-8 -38 -41 -38h-39q-22 0 -22 22z" />
<glyph unicode="&#x201d;" horiz-adv-x="604" d="M80 1112q0 12 2 18l84 353q9 39 41 39h39q22 0 22 -23q0 -12 -2 -16l-98 -353q-8 -38 -39 -38h-31q-18 0 -18 20zM336 1112q0 12 2 18l84 353q9 39 41 39h39q22 0 22 -23q0 -12 -2 -16l-98 -353q-8 -38 -39 -38h-31q-18 0 -18 20z" />
<glyph unicode="&#x201e;" horiz-adv-x="604" d="M80 -193q0 13 2 19l84 352q9 39 41 39h39q22 0 22 -22q0 -13 -2 -17l-98 -352q-9 -39 -39 -39h-31q-18 0 -18 20zM336 -193q0 13 2 19l84 352q9 39 41 39h39q22 0 22 -22q0 -13 -2 -17l-98 -352q-9 -39 -39 -39h-31q-18 0 -18 20z" />
<glyph unicode="&#x2022;" horiz-adv-x="856" d="M113 752q0 130 92.5 222.5t222.5 92.5t222.5 -92.5t92.5 -222.5q0 -131 -92.5 -223.5t-222.5 -92.5t-222.5 92.5t-92.5 223.5z" />
<glyph unicode="&#x2026;" horiz-adv-x="1040" d="M127 27v151q0 17 11 28t28 11h12q17 0 28 -11t11 -28v-151q0 -17 -11 -28t-28 -11h-12q-17 0 -28 11t-11 28zM475 27v151q0 17 11 28t28 11h12q17 0 28 -11t11 -28v-151q0 -17 -11 -28t-28 -11h-12q-17 0 -28 11t-11 28zM823 27v151q0 17 11 28t28 11h12q17 0 28 -11 t11 -28v-151q0 -17 -11 -28t-28 -11h-12q-17 0 -28 11t-11 28z" />
<glyph unicode="&#x202f;" horiz-adv-x="401" />
<glyph unicode="&#x2039;" horiz-adv-x="624" d="M45 551q0 30 29 59l364 334q17 14 33 14q13 0 21 -8l14 -14q10 -10 10 -23q0 -17 -16 -30l-363 -332l363 -332q16 -13 16 -31q0 -12 -10 -22l-14 -14q-9 -9 -21 -9q-15 0 -33 15l-364 334q-29 26 -29 59z" />
<glyph unicode="&#x203a;" horiz-adv-x="624" d="M109 188q0 18 16 31l362 332l-362 332q-16 13 -16 30q0 13 10 23l14 14q8 8 21 8q15 0 32 -14l365 -334q29 -29 29 -59q0 -33 -29 -59l-365 -334q-18 -15 -32 -15q-12 0 -21 9l-14 14q-10 10 -10 22z" />
<glyph unicode="&#x205f;" horiz-adv-x="501" />
<glyph unicode="&#x20ac;" d="M61 604v19q0 32 41 32h86v219h-90q-37 0 -37 33v19q0 32 41 32h86q7 127 43 227.5t89 164t124 106t142.5 59.5t148.5 17q65 0 118 -2.5t77.5 -5.5t56 -7.5t41.5 -5.5q39 -4 39 -34v-25q0 -16 -6.5 -20.5t-20.5 -4.5h-12q-176 19 -293 19q-85 0 -161 -27t-141.5 -82.5 t-106.5 -153t-47 -225.5h673q37 0 37 -26v-6l-4 -19q-6 -33 -41 -33h-665v-219h608q37 0 37 -26v-6l-4 -19q-6 -33 -41 -33h-600q6 -131 46.5 -229.5t105.5 -155.5t141.5 -84.5t162.5 -27.5q127 0 293 18h12q14 0 20.5 -4t6.5 -20v-25q0 -31 -39 -35q-8 -1 -41 -5.5t-57 -7 t-77 -5t-118 -2.5q-78 0 -150 17.5t-143.5 60t-125 107t-88.5 167t-40 231.5h-90q-37 0 -37 33z" />
<glyph unicode="&#x2122;" horiz-adv-x="1568" d="M51 1477v10q0 16 10 24.5t25 8.5h520q15 0 26 -8.5t11 -24.5v-10q0 -16 -11.5 -23.5t-25.5 -7.5h-219v-727q0 -13 -9.5 -24t-25.5 -11h-10q-16 0 -24.5 10.5t-8.5 24.5v727h-223q-35 0 -35 31zM723 705v778q0 17 16 20q189 23 363 23q62 0 104.5 -2.5t85 -10t69.5 -21 t51 -35.5t37 -54t20.5 -75t7.5 -101v-522q0 -21 -21 -21h-37q-18 0 -18 21v522q0 50 -2.5 80.5t-12.5 58.5t-26.5 42.5t-47 25.5t-71.5 14.5t-102 3.5v-747q0 -21 -19 -21h-39q-20 0 -20 21v747q-130 0 -262 -16v-731q0 -21 -19 -21h-37q-20 0 -20 21z" />
</font>
</defs>
</svg>
